<mxfile host="65bd71144e">
    <diagram id="soWWN6mdKZT7OQivtA5G" name="Page-1">
        <mxGraphModel dx="809" dy="545" grid="1" gridSize="10" guides="1" tooltips="1" connect="1" arrows="1" fold="1" page="1" pageScale="1" pageWidth="827" pageHeight="1169" math="0" shadow="0">
            <root>
                <mxCell id="0"/>
                <mxCell id="1" parent="0"/>
                <mxCell id="19" value="HTTP/gRPC" style="edgeStyle=orthogonalEdgeStyle;html=1;startArrow=classic;startFill=1;rounded=0;" edge="1" parent="1" source="5" target="2">
                    <mxGeometry relative="1" as="geometry">
                        <Array as="points">
                            <mxPoint x="923" y="230"/>
                            <mxPoint x="923" y="230"/>
                        </Array>
                    </mxGeometry>
                </mxCell>
                <mxCell id="5" value="UI" style="shape=image;verticalLabelPosition=bottom;verticalAlign=top;imageAspect=0;aspect=fixed;image=data:image/svg+xml,PHN2ZyB4bWxucz0iaHR0cDovL3d3dy53My5vcmcvMjAwMC9zdmciIHZpZXdCb3g9IjAgMCAxOCAxOCIgaGVpZ2h0PSIxOCIgd2lkdGg9IjE4Ij48ZGVmcz48bGluZWFyR3JhZGllbnQgZ3JhZGllbnRVbml0cz0idXNlclNwYWNlT25Vc2UiIHkyPSI4LjcwMyIgeDI9IjE0LjY4MyIgeTE9IjguNzAzIiB4MT0iOC43OTgiIGlkPSJiMjdmMWFkMC03ZDExLTQyNDctOWRhMy05MWJjZTYyMTFmMzIiPjxzdG9wIHN0b3AtY29sb3I9IiM3NzNhZGMiIG9mZnNldD0iMC4wMDEiLz48c3RvcCBzdG9wLWNvbG9yPSIjNTUyZjk5IiBvZmZzZXQ9IjEiLz48L2xpbmVhckdyYWRpZW50PjxsaW5lYXJHcmFkaWVudCBncmFkaWVudFVuaXRzPSJ1c2VyU3BhY2VPblVzZSIgeTI9IjEzLjc4IiB4Mj0iNS43NjQiIHkxPSIzLjc3NyIgeDE9IjUuNzY0IiBpZD0iYjJmOTIxMTItNGNhOS00YjE3LWEwMTktYzlmMjZjMWE0YThmIj48c3RvcCBzdG9wLWNvbG9yPSIjYTY3YWY0IiBvZmZzZXQ9IjAiLz48c3RvcCBzdG9wLWNvbG9yPSIjNzczYWRjIiBvZmZzZXQ9IjAuOTk5Ii8+PC9saW5lYXJHcmFkaWVudD48L2RlZnM+PGcgaWQ9ImI4YTA0ODZhLTU1MDEtNGQ5Mi1iNTQwLWE3NjZjNGIzYjU0OCI+PGc+PGc+PGc+PHBhdGggZmlsbD0iIzMyYmVkZCIgZD0iTTE2LjkzMiwxMS41NzhhOC40NDgsOC40NDgsMCwwLDEtNy45NSw1LjU5LDguMTUsOC4xNSwwLDAsMS0yLjMzLS4zMywyLjEzMywyLjEzMywwLDAsMCwuMTgtLjgzYy4wMSwwLC4wMy4wMS4wNC4wMWE3LjQyMiw3LjQyMiwwLDAsMCwyLjExLjMsNy42NDYsNy42NDYsMCwwLDAsNi44NS00LjI4bC4wMS0uMDFaIi8+PHBhdGggZmlsbD0iIzMyYmVkZCIgZD0iTTMuNTgyLDE0LjA2OGEyLjAyNSwyLjAyNSwwLDAsMC0uNjQuNTYsOC42LDguNiwwLDAsMS0xLjY3LTIuNDRsMS4wNC4yM3YuMjZhLjYuNiwwLDAsMCwuNDcuNTlsLjE0LjAzYTYuMTM2LDYuMTM2LDAsMCwwLC42Mi43M1oiLz48cGF0aCBmaWxsPSIjMzJiZWRkIiBkPSJNMTIuMzUyLjk1OGEyLjI4LDIuMjgsMCwwLDAtLjI3LjgxYy0uMDItLjAxLS4wNS0uMDItLjA3LS4wM2E3LjQ3OSw3LjQ3OSwwLDAsMC0zLjAzLS42Myw3LjY0Myw3LjY0MywwLDAsMC01LjksMi44bC0uMjkuMDZhLjYuNiwwLDAsMC0uNDguNTh2LjQ2bC0xLjAyLjE5QTguNDU0LDguNDU0LDAsMCwxLDguOTgyLjI2OCw4LjYsOC42LDAsMCwxLDEyLjM1Mi45NThaIi8+PHBhdGggZmlsbD0iIzMyYmVkZCIgZD0iTTE2Ljg3Miw1LjdsLTEuMDktLjM4YTYuNiw2LjYsMCwwLDAtLjcyLTEuMTZjLS4wMi0uMDMtLjA0LS4wNS0uMDUtLjA3YTIuMDgzLDIuMDgzLDAsMCwwLC43Mi0uNDVBNy44MSw3LjgxLDAsMCwxLDE2Ljg3Miw1LjdaIi8+PHBhdGggZmlsbD0iI2ZmZiIgZD0iTTEwLjA3MiwxMS45MDhsMi41NC41Nkw4LjY3MiwxNC4xYy0uMDIsMC0uMDMuMDEtLjA1LjAxYS4xNTQuMTU0LDAsMCwxLS4xNS0uMTVWMy40NDhhLjE1NC4xNTQsMCwwLDEsLjE1LS4xNS4wOS4wOSwwLDAsMSwuMDUuMDFsNC40NiwxLjU2LTMuMDUuNTdhLjU2NS41NjUsMCwwLDAtLjQ0LjU0djUuNEEuNTM3LjUzNywwLDAsMCwxMC4wNzIsMTEuOTA4WiIvPjxnPjxnIGlkPSJlOTE4ZjI4Ni01MDMyLTQ5NDItYWQyOS1lYTE3ZTZmMWNjOTAiPjxwYXRoIGZpbGw9IiNhNjdhZjQiIGQ9Ik0xLjEsNS42NjhsMS4yMS0uMjN2Ni41NWwtMS4yMy0uMjctLjk5LS4yMmEuMTExLjExMSwwLDAsMS0uMDktLjEydi01LjRhLjEyLjEyLDAsMCwxLC4wOS0uMTJaIi8+PC9nPjxnPjxnIGlkPSJhNDdhOTlkZC00ZDQ3LTRjNzAtOGM0Mi1jNWFjMjc0Y2U0OTYiPjxnPjxwYXRoIGZpbGw9InVybCgjYjI3ZjFhZDAtN2QxMS00MjQ3LTlkYTMtOTFiY2U2MjExZjMyKSIgZD0iTTEwLjA3MiwxMS45MDhsMi41NC41Nkw4LjY3MiwxNC4xYy0uMDIsMC0uMDMuMDEtLjA1LjAxYS4xNTQuMTU0LDAsMCwxLS4xNS0uMTVWMy40NDhhLjE1NC4xNTQsMCwwLDEsLjE1LS4xNS4wOS4wOSwwLDAsMSwuMDUuMDFsNC40NiwxLjU2LTMuMDUuNTdhLjU2NS41NjUsMCwwLDAtLjQ0LjU0djUuNEEuNTM3LjUzNywwLDAsMCwxMC4wNzIsMTEuOTA4WiIvPjxwYXRoIGZpbGw9InVybCgjYjJmOTIxMTItNGNhOS00YjE3LWEwMTktYzlmMjZjMWE0YThmKSIgZD0iTTguNTg2LDMuMywyLjg3OCw0LjM3OGEuMTc3LjE3NywwLDAsMC0uMTQuMTc1VjEyLjY4YS4xNzcuMTc3LDAsMCwwLC4xMzcuMTc0TDguNTgxLDE0LjFhLjE3Ni4xNzYsMCwwLDAsLjIxLS4xNzRWMy40NzhBLjE3NS4xNzUsMCwwLDAsOC42MTksMy4zWiIvPjwvZz48L2c+PHBvbHlnb24gb3BhY2l0eT0iMC41IiBmaWxsPSIjYjc5NmY5IiBwb2ludHM9IjUuOTQ4IDQuOTIxIDUuOTQ4IDEyLjQ4MyA3LjkzNCAxMi44MTQgNy45MzQgNC41NjQgNS45NDggNC45MjEiLz48cG9seWdvbiBvcGFjaXR5PSIwLjUiIGZpbGw9IiNiNzk2ZjkiIHBvaW50cz0iMy41MDkgNS4zMjkgMy41MDkgMTEuOTU0IDUuMjM4IDEyLjMxNyA1LjIzOCA1LjAzMSAzLjUwOSA1LjMyOSIvPjwvZz48L2c+PC9nPjxwYXRoIGZpbGw9IiMzMmJlZGQiIGQ9Ik0xNiwyLjA0OGExLjc1NSwxLjc1NSwwLDEsMS0xLjc2LTEuNzZBMS43NTYsMS43NTYsMCwwLDEsMTYsMi4wNDhaIi8+PGNpcmNsZSBmaWxsPSIjMzJiZWRkIiByPSIxLjc1OSIgY3k9IjE1Ljk3MyIgY3g9IjQuNjUiLz48L2c+PHBhdGggZmlsbD0iIzc3M2FkYyIgZD0iTTE4LDYuNjg5djMuODQ0YS4yMjIuMjIyLDAsMCwxLS4xMzMuMmwtLjc2Ni4zMTYtMy4wNywxLjI2OC0uMDExLDBhLjEyNi4xMjYsMCwwLDEtLjAzOCwwLC4xLjEsMCwwLDEtLjEtLjFWNS4yMzRhLjEuMSwwLDAsMSwuMDU0LS4wODhsMCwwLC4wMTksMGEuMDMxLjAzMSwwLDAsMSwuMDE5LDAsLjA1NS4wNTUsMCwwLDEsLjAzNC4wMDhsLjAxMSwwLC4wMTIsMEwxNy4wNSw2LjJsLjguMjgyQS4yMTMuMjEzLDAsMCwxLDE4LDYuNjg5WiIvPjxwYXRoIGZpbGw9IiNhNjdhZjQiIGQ9Ik0xMy45NTksNS4xNGwtMy44LjcxNWEuMTE4LjExOCwwLDAsMC0uMDkzLjExN3Y1LjQwOWEuMTE4LjExOCwwLDAsMCwuMDkxLjExNmwzLjguODMxYS4xMTUuMTE1LDAsMCwwLC4xMzctLjA5LjEwOS4xMDksMCwwLDAsMC0uMDI2VjUuMjU2YS4xMTcuMTE3LDAsMCwwLS4xMTUtLjExOEEuMDgyLjA4MiwwLDAsMCwxMy45NTksNS4xNFoiLz48L2c+PC9nPjwvc3ZnPg==" vertex="1" parent="1">
                    <mxGeometry x="840" y="80" width="110" height="110" as="geometry"/>
                </mxCell>
                <mxCell id="4" value="" style="group" vertex="1" connectable="0" parent="1">
                    <mxGeometry x="890" y="260" width="66.67000000000007" height="60" as="geometry"/>
                </mxCell>
                <mxCell id="2" value="" style="shape=hexagon;perimeter=hexagonPerimeter2;whiteSpace=wrap;html=1;fixedSize=1;fillColor=#dae8fc;strokeColor=#6c8ebf;" vertex="1" parent="4">
                    <mxGeometry width="66.67" height="60" as="geometry"/>
                </mxCell>
                <mxCell id="3" value="" style="shape=image;verticalLabelPosition=bottom;verticalAlign=top;imageAspect=0;image=data:image/png,iVBORw0KGgoAAAANSUhEUgAAAUAAAADrCAYAAAAYPE8zAAAABGdBTUEAALGPC/xhBQAAACBjSFJNAAB6JgAAgIQAAPoAAACA6AAAdTAAAOpgAAA6mAAAF3CculE8AAAABmJLR0QA/wD/AP+gvaeTAAAb2klEQVR42u3de5QcZZkG8Oet7rlkpqtnMgkgATLdnVlAg4CC61ERQViWBQy7YWWVi8g1QjI9SQiwKO6OIKuIZDLdiRoFIuAiBOWychF3xUAUUeRuFELSPblogIQJ0zX36ap3/+iJcjFkbvV19fTzO8dzOMJ0Vb9V9dT7VVfVBxARERFReRGWoDwdN/fOYzu25G5zXexXrHXo6R1E/4A7WUu8A2Kd62QW3M+9LbgslqA8ZTd1JYsZfmVgOtT7D5aBAUgB5CoirILvoiwBA5CIiAFIRMQAJCJiABIRMQCJiBiAREQMQCIiBiAREQOQiIgBSETEACQiYgASETEAiYgYgEREDEAiIgYgEREDkIiIAUhEDEAiIgYgEREDkIiIAUhExAAkImIAEhExAImIGIBERAxAIiIGIBERA5CIiAFIRMQAJCJiABIRMQCJiBiAREQMQCIiBiAREQOQiIgBSETEACQiYgASETEAiYgYgEREDEAiIgYgEREDkIiIAUhExAAkIgYgEREDkIiIAUhExAAkImIAEhExAImIGIBERAxAIqISFGYJgkFVQwAwZ979Vet++6f9/F6eB9SI6rg+w/V0vN95Um9TUa2om9mW8HMZXXvVbMFT84Z4BI1xG03WLzZl1ooDKjz3Zv8Sy7sq17HwNxP1cb98evuMLyy8/5qe7vzZClQEvb6u5+GNrgEeQcU3AEjaaXz9SqxpzbMc7AALX8z1alVwvG9nDstaNpGfd8nihy7r7s6fx12SRqkK0CX25qmdDvA1lmN0eA0wIHq6B09nFWjsIxLrbBaBAViqe6+4ns5gHWgc+9BM1oABSETEACQiYgASETEAiYgYgEREDEAiYgASETEAqag8loC4/zAAy5BoKCwbWQcahxdZAgZgydp7Ws23WAUaK4V+k1UYPb4OKyAef/CzPzjqpNvzr77ed77raSz4PasUjjsqbu4BGxR6Q3e2ZTXLwQAsab988Iw7ANxRIqvrishObjXiEJiIiAFIRMQhMI1eT4mtL2+7IAYgTQwR6WMViDgEJiJiABIRMQCJiBiAREQMQCIiBiAREQOQiIgBSETEACQiYgASETEAiYgYgEREDEAiYgASETEAiYgYgEREDEAiIgYgEREDkIhoUjA2J8j0g66z+/M1HxIXR8LShCriAswApAZQuxDG0iVATqEOoOsB+aOo/B75oSdzWxd3cnPt3tTEyjpPBz7siXwQqgkB4qrYFyJTAI0W/ivJKbRLgByA9aL4g4i1zpKK3+7MzOtiFSfa6lBt/JVDQpD3K/RQqMyG6HRAbAiiUK1BYVsMAHhdFR2WSAbAi+LmH+/avCjDGvpL/PzwyKz2Q+Bap0H0VAEOBRAa40e5AH6rwIOw9N7ujS2/39Mf2LH0wRD9o2+FE5ySyyQfKObGq2lMfSBsyWkKnQNg9jg6+jygj0Osh6DuPU524Us8NMYotqratnqOh7r/DMgcAHuN49O2AfpzwLrL0cjP0HFuPwu8uwagfWYeoUMB9/1QmQ4gKkCdB9RZQJcCfSLaq5Cuqoq+a3e8dIXjSwDOmLGyxqnqPwuQ+SiEnh/WiuDbuSmdP8a61sFyCsDpB11nDw5OOUeB+QAO9mERKsAjnsi3u2e+fh/WtOZ3d3ITT77v1/f01L2gp2PRs6P5Gzue+iKAub6skGKT05E8bXf/uqEpFR3K42IIFgHYx4c1yIniv9WyljmZBeuLETJ2LP1fED3Bp49f52ST54xqRDlQfbIlMleB4wFMHXE35bkzejct2jahQ+BC8A0sdDCwBJCpPm+Lj6vi43Zvw1Yk0v/hZF6/BWid1PPUFoKv+rKBQWkBEPVzVKDAcaJ6nL2pISuJ1JdymeY7Cv/3X1mu1qrIEX6thGVZkTGMZ2ZC4c86Cf72+sxurYz0Tr1syMUSCOp93C5RFVwM9ebZ8fYHPeiXerILnzc6XLQQV7/qWxjljSSED4Z4XxoYlH8VQbWOdz+biIbBjqU+71QPrgdw7WiSeALsD9Wb7fi0x6OJ9r+bnNHXakUSqYsHBqdsUMiXfQ6/t4ur4nY7nn6kPr68kQOtt6pLpI+0e6c9K5CvAr6G39uOWTnFgvWMHUvdVNPYtm9Z1LopNSsSa/9viK4D5CwA1RNUzLGrjy9vjMTTP4VgFVT3K1559MOq8kw0kT5jMm30aKL97+x4wxpRfAvA3kVclWNceM/ZsfZTGXvD2ybefranuhbQ9xZpFSwIzgtZoXXRROrMyVxrO54+33PxrIicgQm+c2XMHxaJt5/uwntBgBMCUqdaVf1BNJ66pnAZq8Q3eiJ9rqo8B+DjQTkJQ+RuO5a6ouzDL5ZaqJBbJ6oLGaepqviBHUv9uD7WVj+pCn1Ma9iOp24B9EYAET8WMYYAXB2yE+3XCeQOAHbASiYKXGXH0yvV09K8x3F2a2U03r4CqjcDmBKwtbMg+LodT32zjDu/ZhW0BW7FBHNdCf0m0tj23klR6P2XTrE3Tb0HwOf8XMzofgSJraq25ZU7oTIn4OW7UEI4sNS2+V6zV0QGet17FTgu4Kt6qYp1ZNmFXyJ1siqWBXgVDxQr9EQ0lj4919H8cOlWenXIDr/6I0BP8v+MPkL77HN9bVScnwCYUyJV/EQpbfL6WFt9f4/7cAmEX0nWdyLOT6q4HcF/eiqqovfZ8fScUi10NL4tBfE//EYcgA1NqWhvTdXDw/fb0ASz91s+LS+hRyD4KKsRWA0w+wv8eFQB+qNIIn1aqRU5kkhdrJBLTC1vBAG4OjTk4Q4AH+Mx4IPZrZWo9O4R4AMsBk2gClG9IxpL/2PJhF9j23tFcYPJZe4xACOJbTdA8U/cn3zq/nqnpRGcX3ppcgmr6OrIzNT7gr6iClSIFboFhn/4e9cAtOPp80WlhfuRT+GXaF8M6EWsBPkoKiHcHfRbZIZHQB8yvdzdBmB9rC0G6DLuP/61+1C5lpUgAw7Kw1rBMow4AFXyYn0XPt18SKtDw+1+NWtBRjoskTP4JM8IA9COpy8QyD+wPD4NfePbFhWj3aeyT8HlDU2pKAvxbgG4/9IpAL7C0vhjamJlHSBfZCWoCPYfyuuVLMO7BGC0suILAPZlafzhon8RzL4xh+jNXWBzpCm1FwvxtwIwtqpaVZewLP51f6qSZCWoiGolL4tYhoK3PAtsW92fhWJGEdenT4BfKfBbqK6HSKcFDKhgL0D29lRjw2+fObgUi+16A+dCitr99QBYK8DvAF2vEtopng5BsJeKt7coZinkBABNPDTG7A0U3lj+jKf6GsR6ZXgeliiAfaA4GIKjRHE4ivVYneiCvWav+K/t6+Z3MwDfTPWc4qyG/BHADdU11p0j2Sh1TalZ6unZqrIYwXsjzbsNP84B1PxiIc8C3tLckPsjbF3ct6f/3o4vOwhinauKZgFqmGkj8ryKXN1t6f3YkBzY0388pSm1fyiP80SQBDDN8LraA73uXAC3lnC9dwJ4HtANgLyhKg4EngBRqDcNIgcCOARA3YgCsK4xHfegRxv+Et2qcll3xz7fA053nRH+UdeG5EYArZGm1Aq4uEqABQj4Q+q18WWHKvRw492I6sJcR+dto5kyYHhSpH+vOSCdCoW1FcAF8HkCrZIl8icBLs9lXr9jNDXu25DcCuDqqYmV7UM6eI1AF5issQc9qwQD8PcQvR2edY/T0fziSP4g0rR8trjeSQA+BeCot9f4LwHohbzPQMXkTv6SiH7KySZfHnN6bkhuB9Bix9ofgchtQe4GLbHOMNz8PRcWnbMz27J5rB/Qu6X5zwAuiibSa1T1RgTv/YTF9oTr5ufummBnTG1MYTrSZDTR/lNV+SEMvXBBIJ+sOSA9Y3gbB92LKnJVd2bB3W+fm2bPGbFgHYB1AK63Y+mDVXR+qMod+stx+dfLAmLsNUwKPCND+Y/mMi0vT8TnOR0t93kiH4PInwK7CdXoa65+VVXZ9/GdmbGH35vlMs23i3ifALCDmbcrQLDaUfvY8YTfW2vc8qCn7icAmJr/OhQKeaVwr++NzlD+g92Z5h+PNvzemRPNL3Znk83O+iU73hqAs1srPeAjhr5QFlbFiRM90XlPpvkFy5U5KFzoD5Thm08/YOjI/ENI3VN2zXs6UXKZhU+iMOXkIONPH8vVdJ490fP09nQselYUJ6MwUboJwX6no8oVTjZ54UiuW495ZAYAdv+0Dxm62D0kijO6N178mh8f3rVpwdMq+ByAQE2Rmff0KIx9UvjR6Pcgn3mjY9Ebfny4k02uhWJemfd+GVQMnba7+ajHfaLpSD4hKmbmXREryAF4g9PR/A2/F2IVhr/4e0ND36tzHckn/FxGdyZ5N4CbArYxjdRXoJf3ZJpf8HMZTkfy+wLcWa6tH6Cff/MQyp8QXJAC8FMDXydRG1vxnuA1fnjaaez8dxPLKgyB1TNx39e2brXNTKZTMfhFAIG5x8lTaTJwaG7MNe78tonvM2SFLivLobDiHiebXGvgVKauhy/CwD1TAveggFXZ81xcgDWteWMB6MHAAQpdOtHXTHbbpaxfskOBmwMzaDJRX8F1pnaavo3ztwDyw/ILQMvYbHi9m5LPQPzvAsXCrIBV+f7eTclnTC3MMnSAupZbYXRYGrI0QPc4qd87WZ+j9m1ms6Ckb6Idi5edTQt+bbTGKqv877ckUE/9qIrRKUeHb4NRv19+8GTX5kt2mvxiXRuTTwN4rehbdHZrJYDp/o7M8Jip7nqX7vrKtUG6zOB/g42fGV9mxcAv4PcPeuIdEKAab+nuWPCo4QBcHYL/N7g+UoRyKlR+V+yNWufsXev/NxXz9X1q3hCA58pm9At5xvQyh39sWefz3mMHqMj3j/dev1EHYEPTK7UGltNRnFOKFv0u98EK9f2t2ipeUeorQCk8RTAx31W8bUVa9Gaft2FtcIqsvza9SKt/yPW/AJ7uKM4BKq8We5uGXc//+lpWUerrAa+iTAis14q04O3+Nl3BmfbChTxvPAA1XBn2//iUojydoapOsTeqhjz/6+u6RamvqDgoE55XnOudov4+2aRAVVBqPKWyL2M8AMP92uv/EM346352nT33LvZGDQ15vf5vRSlSfb29US5Ei/UW5en+HiLoDUiFcxP9+OaIDh2notb/7sFDkXYeLfoBmg/53/1q0eorZROACuxTlOX6fBLXoDw7r/4O9XcbgMO3T7j+bkQ9tEgHaGOxt2tNTYWJHeywIn29RpQJgcbML7XVguIQn4fYQbmVqb8YC931Oixf79HTYkyx2ZSqAnBksbfq9nXbe+H32z3EfH3rY231gL8HZ8Ai8CjTS6xrnH444HN3byEXiAbQMvYGnL8ZgL5efBRgZm18mdEu0M7riQjECzxbPfh/G9Ds+lib0Q7Fk9AcBPwt3BPsBNNz6rrineJ78HjIBuL0osgXY7kWAKjqBv8XZJmdbU7kwgAdPH7XV/ISutToGRsIUn1NmJJ38TlTC5sxY2WNCOb7flxa2IgyZgGAJUaK8Nm6ppSRB6/rZrUfAeCkoBRZ4X99BTi/prHNyHzOkcb2Y1GYX6HcXD5jxkojk0R1Vw5cBBi4i8HzNqCMDb8NxnrBwLLCnofvAa3+DpuOaQ17nrUCAZrER6Am6jslZIX8fx1WU6pKLEmV48GiwAFOdf9/+r2c+lhbTAWtJq5kWNCXyj4AYYUfhYn5GhXH2olpl/vanWyathTQDweqyhJ6zNCSTo0kUhf7uQDbxXKU1Y8fb9+H5bJIrP0z/i2g1XIl9H3sYTrHCfKCX28PL6kAHH5FvZkzgerV0UTqZF/CL5aaJ9DmoBXZySxYD8DIs6SiWBqJpY/xJfxi6ctRmCKznAlEbqpLpH25wyAan5qGobk6FHi0zLflm37FE2PFqFDFXRMdgtFYaqEIlgf2qBExVd9qEb1vYkNQJRJPXQXRr4EgQI2n+nBtInX8RHZ+kUT7MoVcYux7eLqGAbjrHxR3G1zuFFXca8fbl4z7mmBsVbWdSK1SQRveNM9x0Hhm6xsV0YcLw2Ed17XQffa5vjYaT98pwDUor9te9qTBUjwUjbePe8RhH/jN6Xa84W5RaTG4/v3hUPUj5b4R/7JDd2Xf83OYfb1RGJDr7XjDY9HYsjFcs1Ox4+k5tjjPQ/H5oBe6WyM/AfCGwUVWiuJb0Xj6f2tjbYeP+q+PaQ3b8faLemurX1Lg08y7v70PKyRlx1OPR+LLjh79n68O2YnUeRiqfAHAqYa72P8ZnpS9vDfgX//xdBdI3w7oEsPr8DEV69d2vH0tRG7JD+Yf7tu6eLcTnNux9MEQ7xQgfQ5K6WJ8x7n9iKfuguH75xQ4zpLQU9F46hFAb3U1/L89HfNf2e1Qt2nF+8Rz52CTnAegCaqgPfqIwHrUTqR+IYq7xZMHujY1Z3dX49rYssNEwp8SvHIuFPEijeNv5WZ7+5BRcRMEi4sw1BFAjobi6HBFGHYi/SeotxGQ1wRwPWCqAPsCmAHotADd4TK6Lyne91StYtxAbClwPCDHW+JqJJ7aIkBWClMGeACmKfAeIL0fXEwt1foWneJYBY5VS9N2PLW1MKLS1wTSo0B1Yf9NHwiE6kzcdPEutuVmdj6MDDfZWwLQ6Wh+MRpP3aXAvxV3R9L9ANlvuIOZNIdjLrPwSTue+imAE4uaw8BMADPZ2/lq/8L/BEGrsyi+YWoGwaB7R6fnubgafk/EUsZE8RVWgYra/eXzK1mG3QRg9+bkH1T1DpbGpy6wI/kEgAdYCSrKCRj6NWxd3MdK7CYAAUAqh1qA4rygsByEYM0H4LASZNhzuYbq77AMewhAZ/2SHQIsYXn88UZ2wSaBfomVIIPylqXnD09nSu8WgACQyyZvBfR+lsinoXB25wpAH2MlyMzQF1/v2tjyFCsxwgAEgIqQnAnBH1gmP7R6qBg6DRDejEB+W5ur6byGZRhlAHZuSOYA619g9gmGsuGsX7LDg85FUCamocnY+2VQMTgX61oHWYtRBiBQeJOJJ/g0ijRpyWTXk00+B9UzAfDaDE20TsA9yVm/ZAdLMcYABICeTPL/VHEiEJgZpCZXJ9jRcp8I/oUnGZrI8BPxTnSyC19iKcYZgADQ3ZF8VFU+VUIhWFLPOuYyyQdE8K8lFILl9ixpKT04s01D1tG5zMInGXETFICFEGxeY4kcC2BrwPfVm6BScu+uy2WSDwA4AcCrwS6vtol63yqzY+VlFSwrhfUU0U90b1iwjvE2wQEIAF2Z5t958I4E8MsgfiEB7nIad36hZIfD2eTavBX6EIBg3rKguNnp2FmO94hqdya5CKpfD/A6/iSk7t/nMi0vM9p8CkAA6MkufNVpqPqkAF8FEJiHqlXxw1xj5xml/qB338b5Wxy1jwKwFIF6Llu+63R0Xjg813FZcjpargRwEYL1o9UARK50ss2nlvscH0YCEADw1LyhXDb5ZRHvo1AUu91WVfxnd0fzmZPmLRcd5/Y72eSlAI4BUOwzugvRS51s87xyDr83denfA3AcgE0BWJ0nNWQd4WSavw4IX/BjLACH5TILn3RinYerysUovF/OeFR4ghO6O5JXT8YdwMkm1zo1nYeIyGIAnUVYhZcgeoyTaVnKw+Wt2yUsVYcBuLFIXfpWQC5wsu/5CK/3FTEAAQBrWvPdHc3fqarsa4LKFQJsMbDur0Lkyuqa0Pt7Msn/m9RbaV3rYC7T3Ga54SYFvgzgFRMHmIgsdtQ+3Mm0/JKHyjvtzMzrcrLJCz3ggxC5B4Br4oQP0UudofyBTrb5psKb3GmsJnQSoR0vXeEA+AaOWNkWeX1wroh3FiD/AKBqAhfznIp8t3twaBW2Lu7b3StVQsi/4sKa51fhQsALpjdW1+ZLdgL4KppS10ddPd2DnCnAJwFUTNSlBABPAfIdp+b1297t6QEvVJUVb9C3+npeeMMYzuYVPrZiu20WerLJ5wDMnTJrxQEVnjdPoeeh8AbzidIP4Gfw9PvOpn3/p1ih58K70QJ+4cuHq1WM0aP/L1uemlhZ52LwZIUeDcXHALxvlJ1npwBPq+hDVt67t2vzIj47+ybR/Zc2oCJ8ikKPBqyPAnrwKLfrdgWethQPhiy9d2emZXOp1sJOpLZDMd2fT9dBJ9sywhN5q1WXmPZBV/VEKbz9+zAAkVFlDfB7UTzuia6ZUhN+cPu6+XwIoRQD8O32mr0i0ts7lLA8mSUijWpJNaD1wyszoIocgJyobhnKuy+82wRJ9E4NTanoQN5NiBWeZQEzFV41IHWF+mq/AjkochZkc15Dz+9+gqQSDMB4aieAel/iDzLUnW2uHONfS31sWaNnWe9Txf5Qq15EbZVdnbu8IR76VJD1BNm6/sqNf/7zvF7uzZMwAIl8DEBnlJ3WaBLQdTqSYVZ5cuFE1zSZzue+BZQKmwUGIFGAqahvASg8VhiARIHu/xQhXxfQlKpilRmARMFTCCdfh6n1eXcKC80AJAqcusFwjd/LGHT9XwYxAIlGbUj9784qqpQdIAOQKHhMhFPeE3aADECi4DERTiFlB8gAJAogE+HkKRiADECi4PHU/w7QUg6BGYBEQdyRDXRnXohDYAYgURA7QAPhxA6QAUgU0A7Q/3BSsANkABIFkIlwEv4IwgAkCiIx0QFaHAIzAImC2AFa/ndnwiEwA5AokB2ggXBSDoEZgESB7ADVRAcIDoEZgERB7AD9Dyd2gAxAovLtAPkjCAOQKJAdoIFwUr4MgQFIFMwO0MCPIOAQmAFIFMQABH8EIQYglesQ2Ew4sQNkABIFkoFw4o8gDECiYPaABsKJP4IwAIkCyUg4MQAZgETlOgTmjyAMQKJg4o8gxAAkdoA+CuOIlRUsNQOQKDgKoRQ2saipOzkMZgASBUhD14Cxoemgl+cwmAFIFBwD+ZCxriysHgOQAUgUHCZDya3gzdAMQKIAcQ2+pSXk8WZoBiBRgITC5royV112gAxAouDwDHaAlobYATIAiYLDxJSYu/CdgAxAokAxGUpi8T5ABiBRkDpAy9wQmBMjMQCJgtUBGhwCCzx2gAxAogB1gDDZAVrsABmARGXaAVrsABmAREEKQIM/gvBXYAYgUbCGwBaHwMQApLIdAhu8DYbzgjAAiQLVARp8Vb2q8hogA5AoQB2g0RuhOQRmABIFqQMUYQdIDEAq1xZQeQ2QGIBUtgyGkjAAGYBEgWJuWKp8GQIDkChABHobgAEDixoC5FZWfDLtO0STQKRp+WzL1R8o9HCfDpUMLHzO2dj8K1abHSBRoHRvWLAup5GPQHAdAG+CP/62mt7+Qxl+7ACJAq820X5cSGWVAgeM86NeA3CBk03+hFVlB0hUEnoyLT8PSdX7Adw2jtbgIU9DhzH82AESlaxIPP1pgX4HQMMI/8QBdImTbfkuq8cAJCp5U2atOCCs7i1QHLuHw+E3It7ZuUzLy6waA5BoElGJxpYnVfQ6AFVv+5d5Eb02l9n3GuB0l7ViABJNziHxO2+XedGy9KyujS1PsToMQKLJrylVZbu4VoDq3FD+Mmxd3MeiEBFRWfl/gE4s5+Zn5J0AAAAldEVYdGRhdGU6Y3JlYXRlADIwMjEtMTItMjRUMTY6MzM6MzMrMDA6MDD6Mh0SAAAAJXRFWHRkYXRlOm1vZGlmeQAyMDIxLTEyLTI0VDE2OjMzOjMzKzAwOjAwi2+lrgAAAABJRU5ErkJggg==" vertex="1" parent="4">
                    <mxGeometry x="11.3599999999999" y="15" width="40.85" height="30" as="geometry"/>
                </mxCell>
                <mxCell id="7" value="Api" style="shape=image;verticalLabelPosition=bottom;verticalAlign=top;imageAspect=0;aspect=fixed;image=data:image/svg+xml,PHN2ZyB4bWxucz0iaHR0cDovL3d3dy53My5vcmcvMjAwMC9zdmciIHZpZXdCb3g9IjAgMCAxOCAxOCIgaGVpZ2h0PSIxOCIgd2lkdGg9IjE4Ij48ZGVmcz48bGluZWFyR3JhZGllbnQgZ3JhZGllbnRVbml0cz0idXNlclNwYWNlT25Vc2UiIHkyPSI4LjcwMyIgeDI9IjE0LjY4MyIgeTE9IjguNzAzIiB4MT0iOC43OTgiIGlkPSJiMjdmMWFkMC03ZDExLTQyNDctOWRhMy05MWJjZTYyMTFmMzIiPjxzdG9wIHN0b3AtY29sb3I9IiM3NzNhZGMiIG9mZnNldD0iMC4wMDEiLz48c3RvcCBzdG9wLWNvbG9yPSIjNTUyZjk5IiBvZmZzZXQ9IjEiLz48L2xpbmVhckdyYWRpZW50PjxsaW5lYXJHcmFkaWVudCBncmFkaWVudFVuaXRzPSJ1c2VyU3BhY2VPblVzZSIgeTI9IjEzLjc4IiB4Mj0iNS43NjQiIHkxPSIzLjc3NyIgeDE9IjUuNzY0IiBpZD0iYjJmOTIxMTItNGNhOS00YjE3LWEwMTktYzlmMjZjMWE0YThmIj48c3RvcCBzdG9wLWNvbG9yPSIjYTY3YWY0IiBvZmZzZXQ9IjAiLz48c3RvcCBzdG9wLWNvbG9yPSIjNzczYWRjIiBvZmZzZXQ9IjAuOTk5Ii8+PC9saW5lYXJHcmFkaWVudD48L2RlZnM+PGcgaWQ9ImI4YTA0ODZhLTU1MDEtNGQ5Mi1iNTQwLWE3NjZjNGIzYjU0OCI+PGc+PGc+PGc+PHBhdGggZmlsbD0iIzMyYmVkZCIgZD0iTTE2LjkzMiwxMS41NzhhOC40NDgsOC40NDgsMCwwLDEtNy45NSw1LjU5LDguMTUsOC4xNSwwLDAsMS0yLjMzLS4zMywyLjEzMywyLjEzMywwLDAsMCwuMTgtLjgzYy4wMSwwLC4wMy4wMS4wNC4wMWE3LjQyMiw3LjQyMiwwLDAsMCwyLjExLjMsNy42NDYsNy42NDYsMCwwLDAsNi44NS00LjI4bC4wMS0uMDFaIi8+PHBhdGggZmlsbD0iIzMyYmVkZCIgZD0iTTMuNTgyLDE0LjA2OGEyLjAyNSwyLjAyNSwwLDAsMC0uNjQuNTYsOC42LDguNiwwLDAsMS0xLjY3LTIuNDRsMS4wNC4yM3YuMjZhLjYuNiwwLDAsMCwuNDcuNTlsLjE0LjAzYTYuMTM2LDYuMTM2LDAsMCwwLC42Mi43M1oiLz48cGF0aCBmaWxsPSIjMzJiZWRkIiBkPSJNMTIuMzUyLjk1OGEyLjI4LDIuMjgsMCwwLDAtLjI3LjgxYy0uMDItLjAxLS4wNS0uMDItLjA3LS4wM2E3LjQ3OSw3LjQ3OSwwLDAsMC0zLjAzLS42Myw3LjY0Myw3LjY0MywwLDAsMC01LjksMi44bC0uMjkuMDZhLjYuNiwwLDAsMC0uNDguNTh2LjQ2bC0xLjAyLjE5QTguNDU0LDguNDU0LDAsMCwxLDguOTgyLjI2OCw4LjYsOC42LDAsMCwxLDEyLjM1Mi45NThaIi8+PHBhdGggZmlsbD0iIzMyYmVkZCIgZD0iTTE2Ljg3Miw1LjdsLTEuMDktLjM4YTYuNiw2LjYsMCwwLDAtLjcyLTEuMTZjLS4wMi0uMDMtLjA0LS4wNS0uMDUtLjA3YTIuMDgzLDIuMDgzLDAsMCwwLC43Mi0uNDVBNy44MSw3LjgxLDAsMCwxLDE2Ljg3Miw1LjdaIi8+PHBhdGggZmlsbD0iI2ZmZiIgZD0iTTEwLjA3MiwxMS45MDhsMi41NC41Nkw4LjY3MiwxNC4xYy0uMDIsMC0uMDMuMDEtLjA1LjAxYS4xNTQuMTU0LDAsMCwxLS4xNS0uMTVWMy40NDhhLjE1NC4xNTQsMCwwLDEsLjE1LS4xNS4wOS4wOSwwLDAsMSwuMDUuMDFsNC40NiwxLjU2LTMuMDUuNTdhLjU2NS41NjUsMCwwLDAtLjQ0LjU0djUuNEEuNTM3LjUzNywwLDAsMCwxMC4wNzIsMTEuOTA4WiIvPjxnPjxnIGlkPSJlOTE4ZjI4Ni01MDMyLTQ5NDItYWQyOS1lYTE3ZTZmMWNjOTAiPjxwYXRoIGZpbGw9IiNhNjdhZjQiIGQ9Ik0xLjEsNS42NjhsMS4yMS0uMjN2Ni41NWwtMS4yMy0uMjctLjk5LS4yMmEuMTExLjExMSwwLDAsMS0uMDktLjEydi01LjRhLjEyLjEyLDAsMCwxLC4wOS0uMTJaIi8+PC9nPjxnPjxnIGlkPSJhNDdhOTlkZC00ZDQ3LTRjNzAtOGM0Mi1jNWFjMjc0Y2U0OTYiPjxnPjxwYXRoIGZpbGw9InVybCgjYjI3ZjFhZDAtN2QxMS00MjQ3LTlkYTMtOTFiY2U2MjExZjMyKSIgZD0iTTEwLjA3MiwxMS45MDhsMi41NC41Nkw4LjY3MiwxNC4xYy0uMDIsMC0uMDMuMDEtLjA1LjAxYS4xNTQuMTU0LDAsMCwxLS4xNS0uMTVWMy40NDhhLjE1NC4xNTQsMCwwLDEsLjE1LS4xNS4wOS4wOSwwLDAsMSwuMDUuMDFsNC40NiwxLjU2LTMuMDUuNTdhLjU2NS41NjUsMCwwLDAtLjQ0LjU0djUuNEEuNTM3LjUzNywwLDAsMCwxMC4wNzIsMTEuOTA4WiIvPjxwYXRoIGZpbGw9InVybCgjYjJmOTIxMTItNGNhOS00YjE3LWEwMTktYzlmMjZjMWE0YThmKSIgZD0iTTguNTg2LDMuMywyLjg3OCw0LjM3OGEuMTc3LjE3NywwLDAsMC0uMTQuMTc1VjEyLjY4YS4xNzcuMTc3LDAsMCwwLC4xMzcuMTc0TDguNTgxLDE0LjFhLjE3Ni4xNzYsMCwwLDAsLjIxLS4xNzRWMy40NzhBLjE3NS4xNzUsMCwwLDAsOC42MTksMy4zWiIvPjwvZz48L2c+PHBvbHlnb24gb3BhY2l0eT0iMC41IiBmaWxsPSIjYjc5NmY5IiBwb2ludHM9IjUuOTQ4IDQuOTIxIDUuOTQ4IDEyLjQ4MyA3LjkzNCAxMi44MTQgNy45MzQgNC41NjQgNS45NDggNC45MjEiLz48cG9seWdvbiBvcGFjaXR5PSIwLjUiIGZpbGw9IiNiNzk2ZjkiIHBvaW50cz0iMy41MDkgNS4zMjkgMy41MDkgMTEuOTU0IDUuMjM4IDEyLjMxNyA1LjIzOCA1LjAzMSAzLjUwOSA1LjMyOSIvPjwvZz48L2c+PC9nPjxwYXRoIGZpbGw9IiMzMmJlZGQiIGQ9Ik0xNiwyLjA0OGExLjc1NSwxLjc1NSwwLDEsMS0xLjc2LTEuNzZBMS43NTYsMS43NTYsMCwwLDEsMTYsMi4wNDhaIi8+PGNpcmNsZSBmaWxsPSIjMzJiZWRkIiByPSIxLjc1OSIgY3k9IjE1Ljk3MyIgY3g9IjQuNjUiLz48L2c+PHBhdGggZmlsbD0iIzc3M2FkYyIgZD0iTTE4LDYuNjg5djMuODQ0YS4yMjIuMjIyLDAsMCwxLS4xMzMuMmwtLjc2Ni4zMTYtMy4wNywxLjI2OC0uMDExLDBhLjEyNi4xMjYsMCwwLDEtLjAzOCwwLC4xLjEsMCwwLDEtLjEtLjFWNS4yMzRhLjEuMSwwLDAsMSwuMDU0LS4wODhsMCwwLC4wMTksMGEuMDMxLjAzMSwwLDAsMSwuMDE5LDAsLjA1NS4wNTUsMCwwLDEsLjAzNC4wMDhsLjAxMSwwLC4wMTIsMEwxNy4wNSw2LjJsLjguMjgyQS4yMTMuMjEzLDAsMCwxLDE4LDYuNjg5WiIvPjxwYXRoIGZpbGw9IiNhNjdhZjQiIGQ9Ik0xMy45NTksNS4xNGwtMy44LjcxNWEuMTE4LjExOCwwLDAsMC0uMDkzLjExN3Y1LjQwOWEuMTE4LjExOCwwLDAsMCwuMDkxLjExNmwzLjguODMxYS4xMTUuMTE1LDAsMCwwLC4xMzctLjA5LjEwOS4xMDksMCwwLDAsMC0uMDI2VjUuMjU2YS4xMTcuMTE3LDAsMCwwLS4xMTUtLjExOEEuMDgyLjA4MiwwLDAsMCwxMy45NTksNS4xNFoiLz48L2c+PC9nPjwvc3ZnPg==" vertex="1" parent="1">
                    <mxGeometry x="1010" y="80" width="110" height="110" as="geometry"/>
                </mxCell>
                <mxCell id="8" value="" style="group" vertex="1" connectable="0" parent="1">
                    <mxGeometry x="1060" y="260" width="66.67000000000007" height="60" as="geometry"/>
                </mxCell>
                <mxCell id="9" value="" style="shape=hexagon;perimeter=hexagonPerimeter2;whiteSpace=wrap;html=1;fixedSize=1;fillColor=#dae8fc;strokeColor=#6c8ebf;" vertex="1" parent="8">
                    <mxGeometry width="66.67" height="60" as="geometry"/>
                </mxCell>
                <mxCell id="10" value="" style="shape=image;verticalLabelPosition=bottom;verticalAlign=top;imageAspect=0;image=data:image/png,iVBORw0KGgoAAAANSUhEUgAAAUAAAADrCAYAAAAYPE8zAAAABGdBTUEAALGPC/xhBQAAACBjSFJNAAB6JgAAgIQAAPoAAACA6AAAdTAAAOpgAAA6mAAAF3CculE8AAAABmJLR0QA/wD/AP+gvaeTAAAb2klEQVR42u3de5QcZZkG8Oet7rlkpqtnMgkgATLdnVlAg4CC61ERQViWBQy7YWWVi8g1QjI9SQiwKO6OIKuIZDLdiRoFIuAiBOWychF3xUAUUeRuFELSPblogIQJ0zX36ap3/+iJcjFkbvV19fTzO8dzOMJ0Vb9V9dT7VVfVBxARERFReRGWoDwdN/fOYzu25G5zXexXrHXo6R1E/4A7WUu8A2Kd62QW3M+9LbgslqA8ZTd1JYsZfmVgOtT7D5aBAUgB5CoirILvoiwBA5CIiAFIRMQAJCJiABIRMQCJiBiAREQMQCIiBiAREQOQiIgBSETEACQiYgASETEAiYgYgEREDEAiIgYgEREDkIiIAUhEDEAiIgYgEREDkIiIAUhExAAkImIAEhExAImIGIBERAxAIiIGIBERA5CIiAFIRMQAJCJiABIRMQCJiBiAREQMQCIiBiAREQOQiIgBSETEACQiYgASETEAiYgYgEREDEAiIgYgEREDkIiIAUhExAAkIgYgEREDkIiIAUhExAAkImIAEhExAImIGIBERAxAIqISFGYJgkFVQwAwZ979Vet++6f9/F6eB9SI6rg+w/V0vN95Um9TUa2om9mW8HMZXXvVbMFT84Z4BI1xG03WLzZl1ooDKjz3Zv8Sy7sq17HwNxP1cb98evuMLyy8/5qe7vzZClQEvb6u5+GNrgEeQcU3AEjaaXz9SqxpzbMc7AALX8z1alVwvG9nDstaNpGfd8nihy7r7s6fx12SRqkK0CX25qmdDvA1lmN0eA0wIHq6B09nFWjsIxLrbBaBAViqe6+4ns5gHWgc+9BM1oABSETEACQiYgASETEAiYgYgEREDEAiYgASETEAqag8loC4/zAAy5BoKCwbWQcahxdZAgZgydp7Ws23WAUaK4V+k1UYPb4OKyAef/CzPzjqpNvzr77ed77raSz4PasUjjsqbu4BGxR6Q3e2ZTXLwQAsab988Iw7ANxRIqvrishObjXiEJiIiAFIRMQhMI1eT4mtL2+7IAYgTQwR6WMViDgEJiJiABIRMQCJiBiAREQMQCIiBiAREQOQiIgBSETEACQiYgASETEAiYgYgEREDEAiYgASETEAiYgYgEREDEAiIgYgEREDkIhoUjA2J8j0g66z+/M1HxIXR8LShCriAswApAZQuxDG0iVATqEOoOsB+aOo/B75oSdzWxd3cnPt3tTEyjpPBz7siXwQqgkB4qrYFyJTAI0W/ivJKbRLgByA9aL4g4i1zpKK3+7MzOtiFSfa6lBt/JVDQpD3K/RQqMyG6HRAbAiiUK1BYVsMAHhdFR2WSAbAi+LmH+/avCjDGvpL/PzwyKz2Q+Bap0H0VAEOBRAa40e5AH6rwIOw9N7ujS2/39Mf2LH0wRD9o2+FE5ySyyQfKObGq2lMfSBsyWkKnQNg9jg6+jygj0Osh6DuPU524Us8NMYotqratnqOh7r/DMgcAHuN49O2AfpzwLrL0cjP0HFuPwu8uwagfWYeoUMB9/1QmQ4gKkCdB9RZQJcCfSLaq5Cuqoq+a3e8dIXjSwDOmLGyxqnqPwuQ+SiEnh/WiuDbuSmdP8a61sFyCsDpB11nDw5OOUeB+QAO9mERKsAjnsi3u2e+fh/WtOZ3d3ITT77v1/f01L2gp2PRs6P5Gzue+iKAub6skGKT05E8bXf/uqEpFR3K42IIFgHYx4c1yIniv9WyljmZBeuLETJ2LP1fED3Bp49f52ST54xqRDlQfbIlMleB4wFMHXE35bkzejct2jahQ+BC8A0sdDCwBJCpPm+Lj6vi43Zvw1Yk0v/hZF6/BWid1PPUFoKv+rKBQWkBEPVzVKDAcaJ6nL2pISuJ1JdymeY7Cv/3X1mu1qrIEX6thGVZkTGMZ2ZC4c86Cf72+sxurYz0Tr1syMUSCOp93C5RFVwM9ebZ8fYHPeiXerILnzc6XLQQV7/qWxjljSSED4Z4XxoYlH8VQbWOdz+biIbBjqU+71QPrgdw7WiSeALsD9Wb7fi0x6OJ9r+bnNHXakUSqYsHBqdsUMiXfQ6/t4ur4nY7nn6kPr68kQOtt6pLpI+0e6c9K5CvAr6G39uOWTnFgvWMHUvdVNPYtm9Z1LopNSsSa/9viK4D5CwA1RNUzLGrjy9vjMTTP4VgFVT3K1559MOq8kw0kT5jMm30aKL97+x4wxpRfAvA3kVclWNceM/ZsfZTGXvD2ybefranuhbQ9xZpFSwIzgtZoXXRROrMyVxrO54+33PxrIicgQm+c2XMHxaJt5/uwntBgBMCUqdaVf1BNJ66pnAZq8Q3eiJ9rqo8B+DjQTkJQ+RuO5a6ouzDL5ZaqJBbJ6oLGaepqviBHUv9uD7WVj+pCn1Ma9iOp24B9EYAET8WMYYAXB2yE+3XCeQOAHbASiYKXGXH0yvV09K8x3F2a2U03r4CqjcDmBKwtbMg+LodT32zjDu/ZhW0BW7FBHNdCf0m0tj23klR6P2XTrE3Tb0HwOf8XMzofgSJraq25ZU7oTIn4OW7UEI4sNS2+V6zV0QGet17FTgu4Kt6qYp1ZNmFXyJ1siqWBXgVDxQr9EQ0lj4919H8cOlWenXIDr/6I0BP8v+MPkL77HN9bVScnwCYUyJV/EQpbfL6WFt9f4/7cAmEX0nWdyLOT6q4HcF/eiqqovfZ8fScUi10NL4tBfE//EYcgA1NqWhvTdXDw/fb0ASz91s+LS+hRyD4KKsRWA0w+wv8eFQB+qNIIn1aqRU5kkhdrJBLTC1vBAG4OjTk4Q4AH+Mx4IPZrZWo9O4R4AMsBk2gClG9IxpL/2PJhF9j23tFcYPJZe4xACOJbTdA8U/cn3zq/nqnpRGcX3ppcgmr6OrIzNT7gr6iClSIFboFhn/4e9cAtOPp80WlhfuRT+GXaF8M6EWsBPkoKiHcHfRbZIZHQB8yvdzdBmB9rC0G6DLuP/61+1C5lpUgAw7Kw1rBMow4AFXyYn0XPt18SKtDw+1+NWtBRjoskTP4JM8IA9COpy8QyD+wPD4NfePbFhWj3aeyT8HlDU2pKAvxbgG4/9IpAL7C0vhjamJlHSBfZCWoCPYfyuuVLMO7BGC0suILAPZlafzhon8RzL4xh+jNXWBzpCm1FwvxtwIwtqpaVZewLP51f6qSZCWoiGolL4tYhoK3PAtsW92fhWJGEdenT4BfKfBbqK6HSKcFDKhgL0D29lRjw2+fObgUi+16A+dCitr99QBYK8DvAF2vEtopng5BsJeKt7coZinkBABNPDTG7A0U3lj+jKf6GsR6ZXgeliiAfaA4GIKjRHE4ivVYneiCvWav+K/t6+Z3MwDfTPWc4qyG/BHADdU11p0j2Sh1TalZ6unZqrIYwXsjzbsNP84B1PxiIc8C3tLckPsjbF3ct6f/3o4vOwhinauKZgFqmGkj8ryKXN1t6f3YkBzY0388pSm1fyiP80SQBDDN8LraA73uXAC3lnC9dwJ4HtANgLyhKg4EngBRqDcNIgcCOARA3YgCsK4xHfegRxv+Et2qcll3xz7fA053nRH+UdeG5EYArZGm1Aq4uEqABQj4Q+q18WWHKvRw492I6sJcR+dto5kyYHhSpH+vOSCdCoW1FcAF8HkCrZIl8icBLs9lXr9jNDXu25DcCuDqqYmV7UM6eI1AF5issQc9qwQD8PcQvR2edY/T0fziSP4g0rR8trjeSQA+BeCot9f4LwHohbzPQMXkTv6SiH7KySZfHnN6bkhuB9Bix9ofgchtQe4GLbHOMNz8PRcWnbMz27J5rB/Qu6X5zwAuiibSa1T1RgTv/YTF9oTr5ufummBnTG1MYTrSZDTR/lNV+SEMvXBBIJ+sOSA9Y3gbB92LKnJVd2bB3W+fm2bPGbFgHYB1AK63Y+mDVXR+qMod+stx+dfLAmLsNUwKPCND+Y/mMi0vT8TnOR0t93kiH4PInwK7CdXoa65+VVXZ9/GdmbGH35vlMs23i3ifALCDmbcrQLDaUfvY8YTfW2vc8qCn7icAmJr/OhQKeaVwr++NzlD+g92Z5h+PNvzemRPNL3Znk83O+iU73hqAs1srPeAjhr5QFlbFiRM90XlPpvkFy5U5KFzoD5Thm08/YOjI/ENI3VN2zXs6UXKZhU+iMOXkIONPH8vVdJ490fP09nQselYUJ6MwUboJwX6no8oVTjZ54UiuW495ZAYAdv+0Dxm62D0kijO6N178mh8f3rVpwdMq+ByAQE2Rmff0KIx9UvjR6Pcgn3mjY9Ebfny4k02uhWJemfd+GVQMnba7+ajHfaLpSD4hKmbmXREryAF4g9PR/A2/F2IVhr/4e0ND36tzHckn/FxGdyZ5N4CbArYxjdRXoJf3ZJpf8HMZTkfy+wLcWa6tH6Cff/MQyp8QXJAC8FMDXydRG1vxnuA1fnjaaez8dxPLKgyB1TNx39e2brXNTKZTMfhFAIG5x8lTaTJwaG7MNe78tonvM2SFLivLobDiHiebXGvgVKauhy/CwD1TAveggFXZ81xcgDWteWMB6MHAAQpdOtHXTHbbpaxfskOBmwMzaDJRX8F1pnaavo3ztwDyw/ILQMvYbHi9m5LPQPzvAsXCrIBV+f7eTclnTC3MMnSAupZbYXRYGrI0QPc4qd87WZ+j9m1ms6Ckb6Idi5edTQt+bbTGKqv877ckUE/9qIrRKUeHb4NRv19+8GTX5kt2mvxiXRuTTwN4rehbdHZrJYDp/o7M8Jip7nqX7vrKtUG6zOB/g42fGV9mxcAv4PcPeuIdEKAab+nuWPCo4QBcHYL/N7g+UoRyKlR+V+yNWufsXev/NxXz9X1q3hCA58pm9At5xvQyh39sWefz3mMHqMj3j/dev1EHYEPTK7UGltNRnFOKFv0u98EK9f2t2ipeUeorQCk8RTAx31W8bUVa9Gaft2FtcIqsvza9SKt/yPW/AJ7uKM4BKq8We5uGXc//+lpWUerrAa+iTAis14q04O3+Nl3BmfbChTxvPAA1XBn2//iUojydoapOsTeqhjz/6+u6RamvqDgoE55XnOudov4+2aRAVVBqPKWyL2M8AMP92uv/EM346352nT33LvZGDQ15vf5vRSlSfb29US5Ei/UW5en+HiLoDUiFcxP9+OaIDh2notb/7sFDkXYeLfoBmg/53/1q0eorZROACuxTlOX6fBLXoDw7r/4O9XcbgMO3T7j+bkQ9tEgHaGOxt2tNTYWJHeywIn29RpQJgcbML7XVguIQn4fYQbmVqb8YC931Oixf79HTYkyx2ZSqAnBksbfq9nXbe+H32z3EfH3rY231gL8HZ8Ai8CjTS6xrnH444HN3byEXiAbQMvYGnL8ZgL5efBRgZm18mdEu0M7riQjECzxbPfh/G9Ds+lib0Q7Fk9AcBPwt3BPsBNNz6rrineJ78HjIBuL0osgXY7kWAKjqBv8XZJmdbU7kwgAdPH7XV/ISutToGRsIUn1NmJJ38TlTC5sxY2WNCOb7flxa2IgyZgGAJUaK8Nm6ppSRB6/rZrUfAeCkoBRZ4X99BTi/prHNyHzOkcb2Y1GYX6HcXD5jxkojk0R1Vw5cBBi4i8HzNqCMDb8NxnrBwLLCnofvAa3+DpuOaQ17nrUCAZrER6Am6jslZIX8fx1WU6pKLEmV48GiwAFOdf9/+r2c+lhbTAWtJq5kWNCXyj4AYYUfhYn5GhXH2olpl/vanWyathTQDweqyhJ6zNCSTo0kUhf7uQDbxXKU1Y8fb9+H5bJIrP0z/i2g1XIl9H3sYTrHCfKCX28PL6kAHH5FvZkzgerV0UTqZF/CL5aaJ9DmoBXZySxYD8DIs6SiWBqJpY/xJfxi6ctRmCKznAlEbqpLpH25wyAan5qGobk6FHi0zLflm37FE2PFqFDFXRMdgtFYaqEIlgf2qBExVd9qEb1vYkNQJRJPXQXRr4EgQI2n+nBtInX8RHZ+kUT7MoVcYux7eLqGAbjrHxR3G1zuFFXca8fbl4z7mmBsVbWdSK1SQRveNM9x0Hhm6xsV0YcLw2Ed17XQffa5vjYaT98pwDUor9te9qTBUjwUjbePe8RhH/jN6Xa84W5RaTG4/v3hUPUj5b4R/7JDd2Xf83OYfb1RGJDr7XjDY9HYsjFcs1Ox4+k5tjjPQ/H5oBe6WyM/AfCGwUVWiuJb0Xj6f2tjbYeP+q+PaQ3b8faLemurX1Lg08y7v70PKyRlx1OPR+LLjh79n68O2YnUeRiqfAHAqYa72P8ZnpS9vDfgX//xdBdI3w7oEsPr8DEV69d2vH0tRG7JD+Yf7tu6eLcTnNux9MEQ7xQgfQ5K6WJ8x7n9iKfuguH75xQ4zpLQU9F46hFAb3U1/L89HfNf2e1Qt2nF+8Rz52CTnAegCaqgPfqIwHrUTqR+IYq7xZMHujY1Z3dX49rYssNEwp8SvHIuFPEijeNv5WZ7+5BRcRMEi4sw1BFAjobi6HBFGHYi/SeotxGQ1wRwPWCqAPsCmAHotADd4TK6Lyne91StYtxAbClwPCDHW+JqJJ7aIkBWClMGeACmKfAeIL0fXEwt1foWneJYBY5VS9N2PLW1MKLS1wTSo0B1Yf9NHwiE6kzcdPEutuVmdj6MDDfZWwLQ6Wh+MRpP3aXAvxV3R9L9ANlvuIOZNIdjLrPwSTue+imAE4uaw8BMADPZ2/lq/8L/BEGrsyi+YWoGwaB7R6fnubgafk/EUsZE8RVWgYra/eXzK1mG3QRg9+bkH1T1DpbGpy6wI/kEgAdYCSrKCRj6NWxd3MdK7CYAAUAqh1qA4rygsByEYM0H4LASZNhzuYbq77AMewhAZ/2SHQIsYXn88UZ2wSaBfomVIIPylqXnD09nSu8WgACQyyZvBfR+lsinoXB25wpAH2MlyMzQF1/v2tjyFCsxwgAEgIqQnAnBH1gmP7R6qBg6DRDejEB+W5ur6byGZRhlAHZuSOYA619g9gmGsuGsX7LDg85FUCamocnY+2VQMTgX61oHWYtRBiBQeJOJJ/g0ijRpyWTXk00+B9UzAfDaDE20TsA9yVm/ZAdLMcYABICeTPL/VHEiEJgZpCZXJ9jRcp8I/oUnGZrI8BPxTnSyC19iKcYZgADQ3ZF8VFU+VUIhWFLPOuYyyQdE8K8lFILl9ixpKT04s01D1tG5zMInGXETFICFEGxeY4kcC2BrwPfVm6BScu+uy2WSDwA4AcCrwS6vtol63yqzY+VlFSwrhfUU0U90b1iwjvE2wQEIAF2Z5t958I4E8MsgfiEB7nIad36hZIfD2eTavBX6EIBg3rKguNnp2FmO94hqdya5CKpfD/A6/iSk7t/nMi0vM9p8CkAA6MkufNVpqPqkAF8FEJiHqlXxw1xj5xml/qB338b5Wxy1jwKwFIF6Llu+63R0Xjg813FZcjpargRwEYL1o9UARK50ss2nlvscH0YCEADw1LyhXDb5ZRHvo1AUu91WVfxnd0fzmZPmLRcd5/Y72eSlAI4BUOwzugvRS51s87xyDr83denfA3AcgE0BWJ0nNWQd4WSavw4IX/BjLACH5TILn3RinYerysUovF/OeFR4ghO6O5JXT8YdwMkm1zo1nYeIyGIAnUVYhZcgeoyTaVnKw+Wt2yUsVYcBuLFIXfpWQC5wsu/5CK/3FTEAAQBrWvPdHc3fqarsa4LKFQJsMbDur0Lkyuqa0Pt7Msn/m9RbaV3rYC7T3Ga54SYFvgzgFRMHmIgsdtQ+3Mm0/JKHyjvtzMzrcrLJCz3ggxC5B4Br4oQP0UudofyBTrb5psKb3GmsJnQSoR0vXeEA+AaOWNkWeX1wroh3FiD/AKBqAhfznIp8t3twaBW2Lu7b3StVQsi/4sKa51fhQsALpjdW1+ZLdgL4KppS10ddPd2DnCnAJwFUTNSlBABPAfIdp+b1297t6QEvVJUVb9C3+npeeMMYzuYVPrZiu20WerLJ5wDMnTJrxQEVnjdPoeeh8AbzidIP4Gfw9PvOpn3/p1ih58K70QJ+4cuHq1WM0aP/L1uemlhZ52LwZIUeDcXHALxvlJ1npwBPq+hDVt67t2vzIj47+ybR/Zc2oCJ8ikKPBqyPAnrwKLfrdgWethQPhiy9d2emZXOp1sJOpLZDMd2fT9dBJ9sywhN5q1WXmPZBV/VEKbz9+zAAkVFlDfB7UTzuia6ZUhN+cPu6+XwIoRQD8O32mr0i0ts7lLA8mSUijWpJNaD1wyszoIocgJyobhnKuy+82wRJ9E4NTanoQN5NiBWeZQEzFV41IHWF+mq/AjkochZkc15Dz+9+gqQSDMB4aieAel/iDzLUnW2uHONfS31sWaNnWe9Txf5Qq15EbZVdnbu8IR76VJD1BNm6/sqNf/7zvF7uzZMwAIl8DEBnlJ3WaBLQdTqSYVZ5cuFE1zSZzue+BZQKmwUGIFGAqahvASg8VhiARIHu/xQhXxfQlKpilRmARMFTCCdfh6n1eXcKC80AJAqcusFwjd/LGHT9XwYxAIlGbUj9784qqpQdIAOQKHhMhFPeE3aADECi4DERTiFlB8gAJAogE+HkKRiADECi4PHU/w7QUg6BGYBEQdyRDXRnXohDYAYgURA7QAPhxA6QAUgU0A7Q/3BSsANkABIFkIlwEv4IwgAkCiIx0QFaHAIzAImC2AFa/ndnwiEwA5AokB2ggXBSDoEZgESB7ADVRAcIDoEZgERB7AD9Dyd2gAxAovLtAPkjCAOQKJAdoIFwUr4MgQFIFMwO0MCPIOAQmAFIFMQABH8EIQYglesQ2Ew4sQNkABIFkoFw4o8gDECiYPaABsKJP4IwAIkCyUg4MQAZgETlOgTmjyAMQKJg4o8gxAAkdoA+CuOIlRUsNQOQKDgKoRQ2saipOzkMZgASBUhD14Cxoemgl+cwmAFIFBwD+ZCxriysHgOQAUgUHCZDya3gzdAMQKIAcQ2+pSXk8WZoBiBRgITC5royV112gAxAouDwDHaAlobYATIAiYLDxJSYu/CdgAxAokAxGUpi8T5ABiBRkDpAy9wQmBMjMQCJgtUBGhwCCzx2gAxAogB1gDDZAVrsABmARGXaAVrsABmAREEKQIM/gvBXYAYgUbCGwBaHwMQApLIdAhu8DYbzgjAAiQLVARp8Vb2q8hogA5AoQB2g0RuhOQRmABIFqQMUYQdIDEAq1xZQeQ2QGIBUtgyGkjAAGYBEgWJuWKp8GQIDkChABHobgAEDixoC5FZWfDLtO0STQKRp+WzL1R8o9HCfDpUMLHzO2dj8K1abHSBRoHRvWLAup5GPQHAdAG+CP/62mt7+Qxl+7ACJAq820X5cSGWVAgeM86NeA3CBk03+hFVlB0hUEnoyLT8PSdX7Adw2jtbgIU9DhzH82AESlaxIPP1pgX4HQMMI/8QBdImTbfkuq8cAJCp5U2atOCCs7i1QHLuHw+E3It7ZuUzLy6waA5BoElGJxpYnVfQ6AFVv+5d5Eb02l9n3GuB0l7ViABJNziHxO2+XedGy9KyujS1PsToMQKLJrylVZbu4VoDq3FD+Mmxd3MeiEBFRWfl/gE4s5+Zn5J0AAAAldEVYdGRhdGU6Y3JlYXRlADIwMjEtMTItMjRUMTY6MzM6MzMrMDA6MDD6Mh0SAAAAJXRFWHRkYXRlOm1vZGlmeQAyMDIxLTEyLTI0VDE2OjMzOjMzKzAwOjAwi2+lrgAAAABJRU5ErkJggg==" vertex="1" parent="8">
                    <mxGeometry x="11.3599999999999" y="15" width="40.85" height="30" as="geometry"/>
                </mxCell>
                <mxCell id="11" value="Consumer" style="shape=image;verticalLabelPosition=bottom;verticalAlign=top;imageAspect=0;aspect=fixed;image=data:image/svg+xml,PHN2ZyB4bWxucz0iaHR0cDovL3d3dy53My5vcmcvMjAwMC9zdmciIHZpZXdCb3g9IjAgMCAxOCAxOCIgaGVpZ2h0PSIxOCIgd2lkdGg9IjE4Ij48ZGVmcz48bGluZWFyR3JhZGllbnQgZ3JhZGllbnRVbml0cz0idXNlclNwYWNlT25Vc2UiIHkyPSI4LjcwMyIgeDI9IjE0LjY4MyIgeTE9IjguNzAzIiB4MT0iOC43OTgiIGlkPSJiMjdmMWFkMC03ZDExLTQyNDctOWRhMy05MWJjZTYyMTFmMzIiPjxzdG9wIHN0b3AtY29sb3I9IiM3NzNhZGMiIG9mZnNldD0iMC4wMDEiLz48c3RvcCBzdG9wLWNvbG9yPSIjNTUyZjk5IiBvZmZzZXQ9IjEiLz48L2xpbmVhckdyYWRpZW50PjxsaW5lYXJHcmFkaWVudCBncmFkaWVudFVuaXRzPSJ1c2VyU3BhY2VPblVzZSIgeTI9IjEzLjc4IiB4Mj0iNS43NjQiIHkxPSIzLjc3NyIgeDE9IjUuNzY0IiBpZD0iYjJmOTIxMTItNGNhOS00YjE3LWEwMTktYzlmMjZjMWE0YThmIj48c3RvcCBzdG9wLWNvbG9yPSIjYTY3YWY0IiBvZmZzZXQ9IjAiLz48c3RvcCBzdG9wLWNvbG9yPSIjNzczYWRjIiBvZmZzZXQ9IjAuOTk5Ii8+PC9saW5lYXJHcmFkaWVudD48L2RlZnM+PGcgaWQ9ImI4YTA0ODZhLTU1MDEtNGQ5Mi1iNTQwLWE3NjZjNGIzYjU0OCI+PGc+PGc+PGc+PHBhdGggZmlsbD0iIzMyYmVkZCIgZD0iTTE2LjkzMiwxMS41NzhhOC40NDgsOC40NDgsMCwwLDEtNy45NSw1LjU5LDguMTUsOC4xNSwwLDAsMS0yLjMzLS4zMywyLjEzMywyLjEzMywwLDAsMCwuMTgtLjgzYy4wMSwwLC4wMy4wMS4wNC4wMWE3LjQyMiw3LjQyMiwwLDAsMCwyLjExLjMsNy42NDYsNy42NDYsMCwwLDAsNi44NS00LjI4bC4wMS0uMDFaIi8+PHBhdGggZmlsbD0iIzMyYmVkZCIgZD0iTTMuNTgyLDE0LjA2OGEyLjAyNSwyLjAyNSwwLDAsMC0uNjQuNTYsOC42LDguNiwwLDAsMS0xLjY3LTIuNDRsMS4wNC4yM3YuMjZhLjYuNiwwLDAsMCwuNDcuNTlsLjE0LjAzYTYuMTM2LDYuMTM2LDAsMCwwLC42Mi43M1oiLz48cGF0aCBmaWxsPSIjMzJiZWRkIiBkPSJNMTIuMzUyLjk1OGEyLjI4LDIuMjgsMCwwLDAtLjI3LjgxYy0uMDItLjAxLS4wNS0uMDItLjA3LS4wM2E3LjQ3OSw3LjQ3OSwwLDAsMC0zLjAzLS42Myw3LjY0Myw3LjY0MywwLDAsMC01LjksMi44bC0uMjkuMDZhLjYuNiwwLDAsMC0uNDguNTh2LjQ2bC0xLjAyLjE5QTguNDU0LDguNDU0LDAsMCwxLDguOTgyLjI2OCw4LjYsOC42LDAsMCwxLDEyLjM1Mi45NThaIi8+PHBhdGggZmlsbD0iIzMyYmVkZCIgZD0iTTE2Ljg3Miw1LjdsLTEuMDktLjM4YTYuNiw2LjYsMCwwLDAtLjcyLTEuMTZjLS4wMi0uMDMtLjA0LS4wNS0uMDUtLjA3YTIuMDgzLDIuMDgzLDAsMCwwLC43Mi0uNDVBNy44MSw3LjgxLDAsMCwxLDE2Ljg3Miw1LjdaIi8+PHBhdGggZmlsbD0iI2ZmZiIgZD0iTTEwLjA3MiwxMS45MDhsMi41NC41Nkw4LjY3MiwxNC4xYy0uMDIsMC0uMDMuMDEtLjA1LjAxYS4xNTQuMTU0LDAsMCwxLS4xNS0uMTVWMy40NDhhLjE1NC4xNTQsMCwwLDEsLjE1LS4xNS4wOS4wOSwwLDAsMSwuMDUuMDFsNC40NiwxLjU2LTMuMDUuNTdhLjU2NS41NjUsMCwwLDAtLjQ0LjU0djUuNEEuNTM3LjUzNywwLDAsMCwxMC4wNzIsMTEuOTA4WiIvPjxnPjxnIGlkPSJlOTE4ZjI4Ni01MDMyLTQ5NDItYWQyOS1lYTE3ZTZmMWNjOTAiPjxwYXRoIGZpbGw9IiNhNjdhZjQiIGQ9Ik0xLjEsNS42NjhsMS4yMS0uMjN2Ni41NWwtMS4yMy0uMjctLjk5LS4yMmEuMTExLjExMSwwLDAsMS0uMDktLjEydi01LjRhLjEyLjEyLDAsMCwxLC4wOS0uMTJaIi8+PC9nPjxnPjxnIGlkPSJhNDdhOTlkZC00ZDQ3LTRjNzAtOGM0Mi1jNWFjMjc0Y2U0OTYiPjxnPjxwYXRoIGZpbGw9InVybCgjYjI3ZjFhZDAtN2QxMS00MjQ3LTlkYTMtOTFiY2U2MjExZjMyKSIgZD0iTTEwLjA3MiwxMS45MDhsMi41NC41Nkw4LjY3MiwxNC4xYy0uMDIsMC0uMDMuMDEtLjA1LjAxYS4xNTQuMTU0LDAsMCwxLS4xNS0uMTVWMy40NDhhLjE1NC4xNTQsMCwwLDEsLjE1LS4xNS4wOS4wOSwwLDAsMSwuMDUuMDFsNC40NiwxLjU2LTMuMDUuNTdhLjU2NS41NjUsMCwwLDAtLjQ0LjU0djUuNEEuNTM3LjUzNywwLDAsMCwxMC4wNzIsMTEuOTA4WiIvPjxwYXRoIGZpbGw9InVybCgjYjJmOTIxMTItNGNhOS00YjE3LWEwMTktYzlmMjZjMWE0YThmKSIgZD0iTTguNTg2LDMuMywyLjg3OCw0LjM3OGEuMTc3LjE3NywwLDAsMC0uMTQuMTc1VjEyLjY4YS4xNzcuMTc3LDAsMCwwLC4xMzcuMTc0TDguNTgxLDE0LjFhLjE3Ni4xNzYsMCwwLDAsLjIxLS4xNzRWMy40NzhBLjE3NS4xNzUsMCwwLDAsOC42MTksMy4zWiIvPjwvZz48L2c+PHBvbHlnb24gb3BhY2l0eT0iMC41IiBmaWxsPSIjYjc5NmY5IiBwb2ludHM9IjUuOTQ4IDQuOTIxIDUuOTQ4IDEyLjQ4MyA3LjkzNCAxMi44MTQgNy45MzQgNC41NjQgNS45NDggNC45MjEiLz48cG9seWdvbiBvcGFjaXR5PSIwLjUiIGZpbGw9IiNiNzk2ZjkiIHBvaW50cz0iMy41MDkgNS4zMjkgMy41MDkgMTEuOTU0IDUuMjM4IDEyLjMxNyA1LjIzOCA1LjAzMSAzLjUwOSA1LjMyOSIvPjwvZz48L2c+PC9nPjxwYXRoIGZpbGw9IiMzMmJlZGQiIGQ9Ik0xNiwyLjA0OGExLjc1NSwxLjc1NSwwLDEsMS0xLjc2LTEuNzZBMS43NTYsMS43NTYsMCwwLDEsMTYsMi4wNDhaIi8+PGNpcmNsZSBmaWxsPSIjMzJiZWRkIiByPSIxLjc1OSIgY3k9IjE1Ljk3MyIgY3g9IjQuNjUiLz48L2c+PHBhdGggZmlsbD0iIzc3M2FkYyIgZD0iTTE4LDYuNjg5djMuODQ0YS4yMjIuMjIyLDAsMCwxLS4xMzMuMmwtLjc2Ni4zMTYtMy4wNywxLjI2OC0uMDExLDBhLjEyNi4xMjYsMCwwLDEtLjAzOCwwLC4xLjEsMCwwLDEtLjEtLjFWNS4yMzRhLjEuMSwwLDAsMSwuMDU0LS4wODhsMCwwLC4wMTksMGEuMDMxLjAzMSwwLDAsMSwuMDE5LDAsLjA1NS4wNTUsMCwwLDEsLjAzNC4wMDhsLjAxMSwwLC4wMTIsMEwxNy4wNSw2LjJsLjguMjgyQS4yMTMuMjEzLDAsMCwxLDE4LDYuNjg5WiIvPjxwYXRoIGZpbGw9IiNhNjdhZjQiIGQ9Ik0xMy45NTksNS4xNGwtMy44LjcxNWEuMTE4LjExOCwwLDAsMC0uMDkzLjExN3Y1LjQwOWEuMTE4LjExOCwwLDAsMCwuMDkxLjExNmwzLjguODMxYS4xMTUuMTE1LDAsMCwwLC4xMzctLjA5LjEwOS4xMDksMCwwLDAsMC0uMDI2VjUuMjU2YS4xMTcuMTE3LDAsMCwwLS4xMTUtLjExOEEuMDgyLjA4MiwwLDAsMCwxMy45NTksNS4xNFoiLz48L2c+PC9nPjwvc3ZnPg==" vertex="1" parent="1">
                    <mxGeometry x="1290" y="80" width="110" height="110" as="geometry"/>
                </mxCell>
                <mxCell id="12" value="" style="group" vertex="1" connectable="0" parent="1">
                    <mxGeometry x="1340" y="260" width="66.67000000000007" height="60" as="geometry"/>
                </mxCell>
                <mxCell id="13" value="" style="shape=hexagon;perimeter=hexagonPerimeter2;whiteSpace=wrap;html=1;fixedSize=1;fillColor=#dae8fc;strokeColor=#6c8ebf;" vertex="1" parent="12">
                    <mxGeometry width="66.67" height="60" as="geometry"/>
                </mxCell>
                <mxCell id="14" value="" style="shape=image;verticalLabelPosition=bottom;verticalAlign=top;imageAspect=0;image=data:image/png,iVBORw0KGgoAAAANSUhEUgAAAUAAAADrCAYAAAAYPE8zAAAABGdBTUEAALGPC/xhBQAAACBjSFJNAAB6JgAAgIQAAPoAAACA6AAAdTAAAOpgAAA6mAAAF3CculE8AAAABmJLR0QA/wD/AP+gvaeTAAAb2klEQVR42u3de5QcZZkG8Oet7rlkpqtnMgkgATLdnVlAg4CC61ERQViWBQy7YWWVi8g1QjI9SQiwKO6OIKuIZDLdiRoFIuAiBOWychF3xUAUUeRuFELSPblogIQJ0zX36ap3/+iJcjFkbvV19fTzO8dzOMJ0Vb9V9dT7VVfVBxARERFReRGWoDwdN/fOYzu25G5zXexXrHXo6R1E/4A7WUu8A2Kd62QW3M+9LbgslqA8ZTd1JYsZfmVgOtT7D5aBAUgB5CoirILvoiwBA5CIiAFIRMQAJCJiABIRMQCJiBiAREQMQCIiBiAREQOQiIgBSETEACQiYgASETEAiYgYgEREDEAiIgYgEREDkIiIAUhEDEAiIgYgEREDkIiIAUhExAAkImIAEhExAImIGIBERAxAIiIGIBERA5CIiAFIRMQAJCJiABIRMQCJiBiAREQMQCIiBiAREQOQiIgBSETEACQiYgASETEAiYgYgEREDEAiIgYgEREDkIiIAUhExAAkIgYgEREDkIiIAUhExAAkImIAEhExAImIGIBERAxAIqISFGYJgkFVQwAwZ979Vet++6f9/F6eB9SI6rg+w/V0vN95Um9TUa2om9mW8HMZXXvVbMFT84Z4BI1xG03WLzZl1ooDKjz3Zv8Sy7sq17HwNxP1cb98evuMLyy8/5qe7vzZClQEvb6u5+GNrgEeQcU3AEjaaXz9SqxpzbMc7AALX8z1alVwvG9nDstaNpGfd8nihy7r7s6fx12SRqkK0CX25qmdDvA1lmN0eA0wIHq6B09nFWjsIxLrbBaBAViqe6+4ns5gHWgc+9BM1oABSETEACQiYgASETEAiYgYgEREDEAiYgASETEAqag8loC4/zAAy5BoKCwbWQcahxdZAgZgydp7Ws23WAUaK4V+k1UYPb4OKyAef/CzPzjqpNvzr77ed77raSz4PasUjjsqbu4BGxR6Q3e2ZTXLwQAsab988Iw7ANxRIqvrishObjXiEJiIiAFIRMQhMI1eT4mtL2+7IAYgTQwR6WMViDgEJiJiABIRMQCJiBiAREQMQCIiBiAREQOQiIgBSETEACQiYgASETEAiYgYgEREDEAiYgASETEAiYgYgEREDEAiIgYgEREDkIhoUjA2J8j0g66z+/M1HxIXR8LShCriAswApAZQuxDG0iVATqEOoOsB+aOo/B75oSdzWxd3cnPt3tTEyjpPBz7siXwQqgkB4qrYFyJTAI0W/ivJKbRLgByA9aL4g4i1zpKK3+7MzOtiFSfa6lBt/JVDQpD3K/RQqMyG6HRAbAiiUK1BYVsMAHhdFR2WSAbAi+LmH+/avCjDGvpL/PzwyKz2Q+Bap0H0VAEOBRAa40e5AH6rwIOw9N7ujS2/39Mf2LH0wRD9o2+FE5ySyyQfKObGq2lMfSBsyWkKnQNg9jg6+jygj0Osh6DuPU524Us8NMYotqratnqOh7r/DMgcAHuN49O2AfpzwLrL0cjP0HFuPwu8uwagfWYeoUMB9/1QmQ4gKkCdB9RZQJcCfSLaq5Cuqoq+a3e8dIXjSwDOmLGyxqnqPwuQ+SiEnh/WiuDbuSmdP8a61sFyCsDpB11nDw5OOUeB+QAO9mERKsAjnsi3u2e+fh/WtOZ3d3ITT77v1/f01L2gp2PRs6P5Gzue+iKAub6skGKT05E8bXf/uqEpFR3K42IIFgHYx4c1yIniv9WyljmZBeuLETJ2LP1fED3Bp49f52ST54xqRDlQfbIlMleB4wFMHXE35bkzejct2jahQ+BC8A0sdDCwBJCpPm+Lj6vi43Zvw1Yk0v/hZF6/BWid1PPUFoKv+rKBQWkBEPVzVKDAcaJ6nL2pISuJ1JdymeY7Cv/3X1mu1qrIEX6thGVZkTGMZ2ZC4c86Cf72+sxurYz0Tr1syMUSCOp93C5RFVwM9ebZ8fYHPeiXerILnzc6XLQQV7/qWxjljSSED4Z4XxoYlH8VQbWOdz+biIbBjqU+71QPrgdw7WiSeALsD9Wb7fi0x6OJ9r+bnNHXakUSqYsHBqdsUMiXfQ6/t4ur4nY7nn6kPr68kQOtt6pLpI+0e6c9K5CvAr6G39uOWTnFgvWMHUvdVNPYtm9Z1LopNSsSa/9viK4D5CwA1RNUzLGrjy9vjMTTP4VgFVT3K1559MOq8kw0kT5jMm30aKL97+x4wxpRfAvA3kVclWNceM/ZsfZTGXvD2ybefranuhbQ9xZpFSwIzgtZoXXRROrMyVxrO54+33PxrIicgQm+c2XMHxaJt5/uwntBgBMCUqdaVf1BNJ66pnAZq8Q3eiJ9rqo8B+DjQTkJQ+RuO5a6ouzDL5ZaqJBbJ6oLGaepqviBHUv9uD7WVj+pCn1Ma9iOp24B9EYAET8WMYYAXB2yE+3XCeQOAHbASiYKXGXH0yvV09K8x3F2a2U03r4CqjcDmBKwtbMg+LodT32zjDu/ZhW0BW7FBHNdCf0m0tj23klR6P2XTrE3Tb0HwOf8XMzofgSJraq25ZU7oTIn4OW7UEI4sNS2+V6zV0QGet17FTgu4Kt6qYp1ZNmFXyJ1siqWBXgVDxQr9EQ0lj4919H8cOlWenXIDr/6I0BP8v+MPkL77HN9bVScnwCYUyJV/EQpbfL6WFt9f4/7cAmEX0nWdyLOT6q4HcF/eiqqovfZ8fScUi10NL4tBfE//EYcgA1NqWhvTdXDw/fb0ASz91s+LS+hRyD4KKsRWA0w+wv8eFQB+qNIIn1aqRU5kkhdrJBLTC1vBAG4OjTk4Q4AH+Mx4IPZrZWo9O4R4AMsBk2gClG9IxpL/2PJhF9j23tFcYPJZe4xACOJbTdA8U/cn3zq/nqnpRGcX3ppcgmr6OrIzNT7gr6iClSIFboFhn/4e9cAtOPp80WlhfuRT+GXaF8M6EWsBPkoKiHcHfRbZIZHQB8yvdzdBmB9rC0G6DLuP/61+1C5lpUgAw7Kw1rBMow4AFXyYn0XPt18SKtDw+1+NWtBRjoskTP4JM8IA9COpy8QyD+wPD4NfePbFhWj3aeyT8HlDU2pKAvxbgG4/9IpAL7C0vhjamJlHSBfZCWoCPYfyuuVLMO7BGC0suILAPZlafzhon8RzL4xh+jNXWBzpCm1FwvxtwIwtqpaVZewLP51f6qSZCWoiGolL4tYhoK3PAtsW92fhWJGEdenT4BfKfBbqK6HSKcFDKhgL0D29lRjw2+fObgUi+16A+dCitr99QBYK8DvAF2vEtopng5BsJeKt7coZinkBABNPDTG7A0U3lj+jKf6GsR6ZXgeliiAfaA4GIKjRHE4ivVYneiCvWav+K/t6+Z3MwDfTPWc4qyG/BHADdU11p0j2Sh1TalZ6unZqrIYwXsjzbsNP84B1PxiIc8C3tLckPsjbF3ct6f/3o4vOwhinauKZgFqmGkj8ryKXN1t6f3YkBzY0388pSm1fyiP80SQBDDN8LraA73uXAC3lnC9dwJ4HtANgLyhKg4EngBRqDcNIgcCOARA3YgCsK4xHfegRxv+Et2qcll3xz7fA053nRH+UdeG5EYArZGm1Aq4uEqABQj4Q+q18WWHKvRw492I6sJcR+dto5kyYHhSpH+vOSCdCoW1FcAF8HkCrZIl8icBLs9lXr9jNDXu25DcCuDqqYmV7UM6eI1AF5issQc9qwQD8PcQvR2edY/T0fziSP4g0rR8trjeSQA+BeCot9f4LwHohbzPQMXkTv6SiH7KySZfHnN6bkhuB9Bix9ofgchtQe4GLbHOMNz8PRcWnbMz27J5rB/Qu6X5zwAuiibSa1T1RgTv/YTF9oTr5ufummBnTG1MYTrSZDTR/lNV+SEMvXBBIJ+sOSA9Y3gbB92LKnJVd2bB3W+fm2bPGbFgHYB1AK63Y+mDVXR+qMod+stx+dfLAmLsNUwKPCND+Y/mMi0vT8TnOR0t93kiH4PInwK7CdXoa65+VVXZ9/GdmbGH35vlMs23i3ifALCDmbcrQLDaUfvY8YTfW2vc8qCn7icAmJr/OhQKeaVwr++NzlD+g92Z5h+PNvzemRPNL3Znk83O+iU73hqAs1srPeAjhr5QFlbFiRM90XlPpvkFy5U5KFzoD5Thm08/YOjI/ENI3VN2zXs6UXKZhU+iMOXkIONPH8vVdJ490fP09nQselYUJ6MwUboJwX6no8oVTjZ54UiuW495ZAYAdv+0Dxm62D0kijO6N178mh8f3rVpwdMq+ByAQE2Rmff0KIx9UvjR6Pcgn3mjY9Ebfny4k02uhWJemfd+GVQMnba7+ajHfaLpSD4hKmbmXREryAF4g9PR/A2/F2IVhr/4e0ND36tzHckn/FxGdyZ5N4CbArYxjdRXoJf3ZJpf8HMZTkfy+wLcWa6tH6Cff/MQyp8QXJAC8FMDXydRG1vxnuA1fnjaaez8dxPLKgyB1TNx39e2brXNTKZTMfhFAIG5x8lTaTJwaG7MNe78tonvM2SFLivLobDiHiebXGvgVKauhy/CwD1TAveggFXZ81xcgDWteWMB6MHAAQpdOtHXTHbbpaxfskOBmwMzaDJRX8F1pnaavo3ztwDyw/ILQMvYbHi9m5LPQPzvAsXCrIBV+f7eTclnTC3MMnSAupZbYXRYGrI0QPc4qd87WZ+j9m1ms6Ckb6Idi5edTQt+bbTGKqv877ckUE/9qIrRKUeHb4NRv19+8GTX5kt2mvxiXRuTTwN4rehbdHZrJYDp/o7M8Jip7nqX7vrKtUG6zOB/g42fGV9mxcAv4PcPeuIdEKAab+nuWPCo4QBcHYL/N7g+UoRyKlR+V+yNWufsXev/NxXz9X1q3hCA58pm9At5xvQyh39sWefz3mMHqMj3j/dev1EHYEPTK7UGltNRnFOKFv0u98EK9f2t2ipeUeorQCk8RTAx31W8bUVa9Gaft2FtcIqsvza9SKt/yPW/AJ7uKM4BKq8We5uGXc//+lpWUerrAa+iTAis14q04O3+Nl3BmfbChTxvPAA1XBn2//iUojydoapOsTeqhjz/6+u6RamvqDgoE55XnOudov4+2aRAVVBqPKWyL2M8AMP92uv/EM346352nT33LvZGDQ15vf5vRSlSfb29US5Ei/UW5en+HiLoDUiFcxP9+OaIDh2notb/7sFDkXYeLfoBmg/53/1q0eorZROACuxTlOX6fBLXoDw7r/4O9XcbgMO3T7j+bkQ9tEgHaGOxt2tNTYWJHeywIn29RpQJgcbML7XVguIQn4fYQbmVqb8YC931Oixf79HTYkyx2ZSqAnBksbfq9nXbe+H32z3EfH3rY231gL8HZ8Ai8CjTS6xrnH444HN3byEXiAbQMvYGnL8ZgL5efBRgZm18mdEu0M7riQjECzxbPfh/G9Ds+lib0Q7Fk9AcBPwt3BPsBNNz6rrineJ78HjIBuL0osgXY7kWAKjqBv8XZJmdbU7kwgAdPH7XV/ISutToGRsIUn1NmJJ38TlTC5sxY2WNCOb7flxa2IgyZgGAJUaK8Nm6ppSRB6/rZrUfAeCkoBRZ4X99BTi/prHNyHzOkcb2Y1GYX6HcXD5jxkojk0R1Vw5cBBi4i8HzNqCMDb8NxnrBwLLCnofvAa3+DpuOaQ17nrUCAZrER6Am6jslZIX8fx1WU6pKLEmV48GiwAFOdf9/+r2c+lhbTAWtJq5kWNCXyj4AYYUfhYn5GhXH2olpl/vanWyathTQDweqyhJ6zNCSTo0kUhf7uQDbxXKU1Y8fb9+H5bJIrP0z/i2g1XIl9H3sYTrHCfKCX28PL6kAHH5FvZkzgerV0UTqZF/CL5aaJ9DmoBXZySxYD8DIs6SiWBqJpY/xJfxi6ctRmCKznAlEbqpLpH25wyAan5qGobk6FHi0zLflm37FE2PFqFDFXRMdgtFYaqEIlgf2qBExVd9qEb1vYkNQJRJPXQXRr4EgQI2n+nBtInX8RHZ+kUT7MoVcYux7eLqGAbjrHxR3G1zuFFXca8fbl4z7mmBsVbWdSK1SQRveNM9x0Hhm6xsV0YcLw2Ed17XQffa5vjYaT98pwDUor9te9qTBUjwUjbePe8RhH/jN6Xa84W5RaTG4/v3hUPUj5b4R/7JDd2Xf83OYfb1RGJDr7XjDY9HYsjFcs1Ox4+k5tjjPQ/H5oBe6WyM/AfCGwUVWiuJb0Xj6f2tjbYeP+q+PaQ3b8faLemurX1Lg08y7v70PKyRlx1OPR+LLjh79n68O2YnUeRiqfAHAqYa72P8ZnpS9vDfgX//xdBdI3w7oEsPr8DEV69d2vH0tRG7JD+Yf7tu6eLcTnNux9MEQ7xQgfQ5K6WJ8x7n9iKfuguH75xQ4zpLQU9F46hFAb3U1/L89HfNf2e1Qt2nF+8Rz52CTnAegCaqgPfqIwHrUTqR+IYq7xZMHujY1Z3dX49rYssNEwp8SvHIuFPEijeNv5WZ7+5BRcRMEi4sw1BFAjobi6HBFGHYi/SeotxGQ1wRwPWCqAPsCmAHotADd4TK6Lyne91StYtxAbClwPCDHW+JqJJ7aIkBWClMGeACmKfAeIL0fXEwt1foWneJYBY5VS9N2PLW1MKLS1wTSo0B1Yf9NHwiE6kzcdPEutuVmdj6MDDfZWwLQ6Wh+MRpP3aXAvxV3R9L9ANlvuIOZNIdjLrPwSTue+imAE4uaw8BMADPZ2/lq/8L/BEGrsyi+YWoGwaB7R6fnubgafk/EUsZE8RVWgYra/eXzK1mG3QRg9+bkH1T1DpbGpy6wI/kEgAdYCSrKCRj6NWxd3MdK7CYAAUAqh1qA4rygsByEYM0H4LASZNhzuYbq77AMewhAZ/2SHQIsYXn88UZ2wSaBfomVIIPylqXnD09nSu8WgACQyyZvBfR+lsinoXB25wpAH2MlyMzQF1/v2tjyFCsxwgAEgIqQnAnBH1gmP7R6qBg6DRDejEB+W5ur6byGZRhlAHZuSOYA619g9gmGsuGsX7LDg85FUCamocnY+2VQMTgX61oHWYtRBiBQeJOJJ/g0ijRpyWTXk00+B9UzAfDaDE20TsA9yVm/ZAdLMcYABICeTPL/VHEiEJgZpCZXJ9jRcp8I/oUnGZrI8BPxTnSyC19iKcYZgADQ3ZF8VFU+VUIhWFLPOuYyyQdE8K8lFILl9ixpKT04s01D1tG5zMInGXETFICFEGxeY4kcC2BrwPfVm6BScu+uy2WSDwA4AcCrwS6vtol63yqzY+VlFSwrhfUU0U90b1iwjvE2wQEIAF2Z5t958I4E8MsgfiEB7nIad36hZIfD2eTavBX6EIBg3rKguNnp2FmO94hqdya5CKpfD/A6/iSk7t/nMi0vM9p8CkAA6MkufNVpqPqkAF8FEJiHqlXxw1xj5xml/qB338b5Wxy1jwKwFIF6Llu+63R0Xjg813FZcjpargRwEYL1o9UARK50ss2nlvscH0YCEADw1LyhXDb5ZRHvo1AUu91WVfxnd0fzmZPmLRcd5/Y72eSlAI4BUOwzugvRS51s87xyDr83denfA3AcgE0BWJ0nNWQd4WSavw4IX/BjLACH5TILn3RinYerysUovF/OeFR4ghO6O5JXT8YdwMkm1zo1nYeIyGIAnUVYhZcgeoyTaVnKw+Wt2yUsVYcBuLFIXfpWQC5wsu/5CK/3FTEAAQBrWvPdHc3fqarsa4LKFQJsMbDur0Lkyuqa0Pt7Msn/m9RbaV3rYC7T3Ga54SYFvgzgFRMHmIgsdtQ+3Mm0/JKHyjvtzMzrcrLJCz3ggxC5B4Br4oQP0UudofyBTrb5psKb3GmsJnQSoR0vXeEA+AaOWNkWeX1wroh3FiD/AKBqAhfznIp8t3twaBW2Lu7b3StVQsi/4sKa51fhQsALpjdW1+ZLdgL4KppS10ddPd2DnCnAJwFUTNSlBABPAfIdp+b1297t6QEvVJUVb9C3+npeeMMYzuYVPrZiu20WerLJ5wDMnTJrxQEVnjdPoeeh8AbzidIP4Gfw9PvOpn3/p1ih58K70QJ+4cuHq1WM0aP/L1uemlhZ52LwZIUeDcXHALxvlJ1npwBPq+hDVt67t2vzIj47+ybR/Zc2oCJ8ikKPBqyPAnrwKLfrdgWethQPhiy9d2emZXOp1sJOpLZDMd2fT9dBJ9sywhN5q1WXmPZBV/VEKbz9+zAAkVFlDfB7UTzuia6ZUhN+cPu6+XwIoRQD8O32mr0i0ts7lLA8mSUijWpJNaD1wyszoIocgJyobhnKuy+82wRJ9E4NTanoQN5NiBWeZQEzFV41IHWF+mq/AjkochZkc15Dz+9+gqQSDMB4aieAel/iDzLUnW2uHONfS31sWaNnWe9Txf5Qq15EbZVdnbu8IR76VJD1BNm6/sqNf/7zvF7uzZMwAIl8DEBnlJ3WaBLQdTqSYVZ5cuFE1zSZzue+BZQKmwUGIFGAqahvASg8VhiARIHu/xQhXxfQlKpilRmARMFTCCdfh6n1eXcKC80AJAqcusFwjd/LGHT9XwYxAIlGbUj9784qqpQdIAOQKHhMhFPeE3aADECi4DERTiFlB8gAJAogE+HkKRiADECi4PHU/w7QUg6BGYBEQdyRDXRnXohDYAYgURA7QAPhxA6QAUgU0A7Q/3BSsANkABIFkIlwEv4IwgAkCiIx0QFaHAIzAImC2AFa/ndnwiEwA5AokB2ggXBSDoEZgESB7ADVRAcIDoEZgERB7AD9Dyd2gAxAovLtAPkjCAOQKJAdoIFwUr4MgQFIFMwO0MCPIOAQmAFIFMQABH8EIQYglesQ2Ew4sQNkABIFkoFw4o8gDECiYPaABsKJP4IwAIkCyUg4MQAZgETlOgTmjyAMQKJg4o8gxAAkdoA+CuOIlRUsNQOQKDgKoRQ2saipOzkMZgASBUhD14Cxoemgl+cwmAFIFBwD+ZCxriysHgOQAUgUHCZDya3gzdAMQKIAcQ2+pSXk8WZoBiBRgITC5royV112gAxAouDwDHaAlobYATIAiYLDxJSYu/CdgAxAokAxGUpi8T5ABiBRkDpAy9wQmBMjMQCJgtUBGhwCCzx2gAxAogB1gDDZAVrsABmARGXaAVrsABmAREEKQIM/gvBXYAYgUbCGwBaHwMQApLIdAhu8DYbzgjAAiQLVARp8Vb2q8hogA5AoQB2g0RuhOQRmABIFqQMUYQdIDEAq1xZQeQ2QGIBUtgyGkjAAGYBEgWJuWKp8GQIDkChABHobgAEDixoC5FZWfDLtO0STQKRp+WzL1R8o9HCfDpUMLHzO2dj8K1abHSBRoHRvWLAup5GPQHAdAG+CP/62mt7+Qxl+7ACJAq820X5cSGWVAgeM86NeA3CBk03+hFVlB0hUEnoyLT8PSdX7Adw2jtbgIU9DhzH82AESlaxIPP1pgX4HQMMI/8QBdImTbfkuq8cAJCp5U2atOCCs7i1QHLuHw+E3It7ZuUzLy6waA5BoElGJxpYnVfQ6AFVv+5d5Eb02l9n3GuB0l7ViABJNziHxO2+XedGy9KyujS1PsToMQKLJrylVZbu4VoDq3FD+Mmxd3MeiEBFRWfl/gE4s5+Zn5J0AAAAldEVYdGRhdGU6Y3JlYXRlADIwMjEtMTItMjRUMTY6MzM6MzMrMDA6MDD6Mh0SAAAAJXRFWHRkYXRlOm1vZGlmeQAyMDIxLTEyLTI0VDE2OjMzOjMzKzAwOjAwi2+lrgAAAABJRU5ErkJggg==" vertex="1" parent="12">
                    <mxGeometry x="11.3599999999999" y="15" width="40.85" height="30" as="geometry"/>
                </mxCell>
                <mxCell id="15" value="Azure Service Bus" style="sketch=0;aspect=fixed;html=1;points=[];align=center;image;fontSize=12;image=img/lib/mscae/Service_Bus.svg;" vertex="1" parent="1">
                    <mxGeometry x="1200" y="265" width="50" height="50" as="geometry"/>
                </mxCell>
                <mxCell id="16" value="Azure Cache for Redis" style="aspect=fixed;html=1;points=[];align=center;image;fontSize=12;image=img/lib/azure2/databases/Cache_Redis.svg;" vertex="1" parent="1">
                    <mxGeometry x="1490" y="264" width="64" height="52" as="geometry"/>
                </mxCell>
                <mxCell id="17" value="Publish" style="edgeStyle=none;html=1;" edge="1" parent="1" source="10" target="15">
                    <mxGeometry relative="1" as="geometry"/>
                </mxCell>
                <mxCell id="18" style="edgeStyle=none;html=1;" edge="1" parent="1" source="3" target="9">
                    <mxGeometry relative="1" as="geometry"/>
                </mxCell>
                <mxCell id="20" value="Subscribe" style="edgeStyle=none;html=1;startArrow=none;startFill=0;" edge="1" parent="1" source="13" target="15">
                    <mxGeometry relative="1" as="geometry"/>
                </mxCell>
                <mxCell id="21" style="edgeStyle=none;html=1;startArrow=none;startFill=0;" edge="1" parent="1" source="14" target="16">
                    <mxGeometry relative="1" as="geometry"/>
                </mxCell>
                <mxCell id="22" value="HTTP/gRPC" style="edgeStyle=orthogonalEdgeStyle;html=1;startArrow=classic;startFill=1;rounded=0;" edge="1" parent="1" source="13" target="11">
                    <mxGeometry relative="1" as="geometry">
                        <Array as="points">
                            <mxPoint x="1380" y="230"/>
                            <mxPoint x="1380" y="230"/>
                        </Array>
                    </mxGeometry>
                </mxCell>
                <mxCell id="24" value="HTTP/gRPC" style="edgeStyle=orthogonalEdgeStyle;rounded=0;html=1;startArrow=classic;startFill=1;" edge="1" parent="1" source="9" target="7">
                    <mxGeometry relative="1" as="geometry">
                        <Array as="points">
                            <mxPoint x="1093" y="200"/>
                            <mxPoint x="1093" y="200"/>
                        </Array>
                    </mxGeometry>
                </mxCell>
            </root>
        </mxGraphModel>
    </diagram>
</mxfile>